<svg width="1000" height="1000" version="1.1" xmlns="http://www.w3.org/2000/svg" desc="Created with ImageTracerAndroid.java version 1.1.2" ><path desc="l 15 p 0" fill="rgb(1,1,0)" stroke="rgb(1,1,0)" stroke-width="1" opacity="0.00784313725490196" d="M 0.5 0.0 L 1000.0 0.5 L 999.5 1000.0 L 0.0 999.5 L 0.5 0.0 Z" /><path desc="l 11 p 0" fill="rgb(38,52,19)" stroke="rgb(38,52,19)" stroke-width="1" opacity="0.2823529411764706" d="M 177.5 19.0 L 823.0 19.5 L 177.5 20.0 L 177.5 19.0 Z" /><path desc="l 11 p 1" fill="rgb(38,52,19)" stroke="rgb(38,52,19)" stroke-width="1" opacity="0.2823529411764706" d="M 165.5 20.0 L 171.0 20.5 L 165.5 21.0 L 165.5 20.0 Z" /><path desc="l 5 p 0" fill="rgb(54,74,27)" stroke="rgb(54,74,27)" stroke-width="1" opacity="0.4" d="M 173.5 20.0 L 179.0 20.5 L 173.5 21.0 L 173.5 20.0 Z" /><path desc="l 7 p 0" fill="rgb(62,85,30)" stroke="rgb(62,85,30)" stroke-width="1" opacity="0.4588235294117647" d="M 179.5 20.0 L 821.0 20.5 L 179.5 21.0 L 179.5 20.0 Z" /><path desc="l 5 p 1" fill="rgb(54,74,27)" stroke="rgb(54,74,27)" stroke-width="1" opacity="0.4" d="M 821.5 20.0 L 827.0 20.5 L 821.5 21.0 L 821.5 20.0 Z" /><path desc="l 11 p 2" fill="rgb(38,52,19)" stroke="rgb(38,52,19)" stroke-width="1" opacity="0.2823529411764706" d="M 829.5 20.0 L 835.0 20.5 L 829.5 21.0 L 829.5 20.0 Z" /><path desc="l 11 p 3" fill="rgb(38,52,19)" stroke="rgb(38,52,19)" stroke-width="1" opacity="0.2823529411764706" d="M 155.5 21.0 L 163.0 21.5 L 155.5 22.0 L 155.5 21.0 Z" /><path desc="l 7 p 1" fill="rgb(62,85,30)" stroke="rgb(62,85,30)" stroke-width="1" opacity="0.4588235294117647" d="M 166.5 21.0 L 171.0 21.5 L 166.5 22.0 L 166.5 21.0 Z" /><path desc="l 6 p 0" fill="rgb(87,119,43)" stroke="rgb(87,119,43)" stroke-width="1" opacity="0.6431372549019608" d="M 171.5 21.0 L 829.0 21.5 L 171.5 22.0 L 171.5 21.0 Z" /><path desc="l 7 p 2" fill="rgb(62,85,30)" stroke="rgb(62,85,30)" stroke-width="1" opacity="0.4588235294117647" d="M 829.5 21.0 L 834.0 21.5 L 829.5 22.0 L 829.5 21.0 Z" /><path desc="l 11 p 4" fill="rgb(38,52,19)" stroke="rgb(38,52,19)" stroke-width="1" opacity="0.2823529411764706" d="M 837.5 21.0 L 845.0 21.5 L 837.5 22.0 L 837.5 21.0 Z" /><path desc="l 11 p 5" fill="rgb(38,52,19)" stroke="rgb(38,52,19)" stroke-width="1" opacity="0.2823529411764706" d="M 151.5 22.0 L 154.0 22.5 L 151.5 23.0 L 151.5 22.0 Z" /><path desc="l 6 p 1" fill="rgb(87,119,43)" stroke="rgb(87,119,43)" stroke-width="1" opacity="0.6431372549019608" d="M 158.5 22.0 L 168.0 22.5 L 154.5 24.0 L 154.5 23.0 L 158.5 22.0 Z" /><path desc="l 0 p 0" fill="rgb(136,185,68)" stroke="rgb(136,185,68)" stroke-width="1" opacity="0.996078431372549" d="M 168.5 22.0 L 665.5 22.0 L 800.5 22.0 L 832.0 22.5 L 844.5 24.0 L 859.5 27.0 Q 880.2999877929688 31.700000762939453 896.5 41.0 Q 923.5 54.5 943.0 75.5 Q 958.9000244140625 92.5999984741211 970.5 114.0 Q 980.4000244140625 130.60000610351562 985.0 152.5 L 988.0 166.5 L 989.5 180.0 L 990.0 212.5 L 990.0 340.5 L 990.0 819.5 Q 987.7999877929688 820.7999877929688 989.0 825.5 L 987.0 839.5 Q 981.7000122070312 868.7000122070312 968.0 889.5 Q 954.5999755859375 914.5999755859375 934.5 933.0 Q 917.9000244140625 947.9000244140625 897.0 958.5 Q 882.0999755859375 967.5999755859375 862.5 972.0 L 844.5 976.0 L 832.0 977.5 L 801.5 978.0 L 666.5 978.0 L 168.5 978.0 L 151.5 975.0 Q 121.69999694824219 970.2999877929688 100.5 957.0 Q 75.30000305175781 944.2000122070312 57.0 924.5 Q 38.79999923706055 905.7000122070312 27.0 880.5 Q 17.899999618530273 864.5999755859375 14.0 843.5 L 12.0 833.5 L 10.5 820.0 L 10.0 787.5 L 10.0 660.5 L 10.0 180.5 Q 12.300000190734863 179.3000030517578 11.0 174.5 L 13.0 160.5 L 19.0 139.5 Q 23.5 121.5 33.0 108.5 Q 46.20000076293945 84.69999694824219 65.5 67.0 Q 80.80000305175781 53.29999923706055 99.5 43.0 L 118.0 34.5 Q 132.10000610351562 27.600000381469727 150.5 25.0 L 163.5 23.0 L 168.5 22.0 Z" /><path desc="l 6 p 2" fill="rgb(87,119,43)" stroke="rgb(87,119,43)" stroke-width="1" opacity="0.6431372549019608" d="M 832.5 22.0 Q 841.0999755859375 20.899999618530273 846.0 23.5 L 841.5 24.0 Q 840.2999877929688 21.799999237060547 835.5 23.0 Q 831.5 23.799999237060547 832.5 22.0 Z" /><path desc="l 11 p 6" fill="rgb(38,52,19)" stroke="rgb(38,52,19)" stroke-width="1" opacity="0.2823529411764706" d="M 846.5 22.0 L 849.0 22.5 L 846.5 23.0 L 846.5 22.0 Z" /><path desc="l 11 p 7" fill="rgb(38,52,19)" stroke="rgb(38,52,19)" stroke-width="1" opacity="0.2823529411764706" d="M 144.5 23.0 L 149.0 23.5 L 141.5 25.0 L 141.5 24.0 L 144.5 23.0 Z" /><path desc="l 11 p 8" fill="rgb(38,52,19)" stroke="rgb(38,52,19)" stroke-width="1" opacity="0.2823529411764706" d="M 851.5 23.0 L 859.0 24.5 L 856.5 25.0 L 853.5 24.0 Q 850.5 24.5 851.5 23.0 Z" /><path desc="l 6 p 3" fill="rgb(87,119,43)" stroke="rgb(87,119,43)" stroke-width="1" opacity="0.6431372549019608" d="M 147.5 24.0 L 152.0 24.5 L 144.5 26.0 L 144.5 25.0 L 147.5 24.0 Z" /><path desc="l 6 p 4" fill="rgb(87,119,43)" stroke="rgb(87,119,43)" stroke-width="1" opacity="0.6431372549019608" d="M 848.5 24.0 L 856.0 25.5 L 853.5 26.0 L 850.5 25.0 Q 847.5 25.5 848.5 24.0 Z" /><path desc="l 11 p 9" fill="rgb(38,52,19)" stroke="rgb(38,52,19)" stroke-width="1" opacity="0.2823529411764706" d="M 136.5 25.0 L 140.0 25.5 L 133.5 27.0 L 133.5 26.0 L 136.5 25.0 Z" /><path desc="l 11 p 10" fill="rgb(38,52,19)" stroke="rgb(38,52,19)" stroke-width="1" opacity="0.2823529411764706" d="M 860.5 25.0 L 867.0 26.5 L 864.5 27.0 L 862.5 26.0 Q 859.5 26.5 860.5 25.0 Z" /><path desc="l 6 p 5" fill="rgb(87,119,43)" stroke="rgb(87,119,43)" stroke-width="1" opacity="0.6431372549019608" d="M 138.5 26.0 L 143.0 26.5 L 136.5 28.0 L 136.5 27.0 L 138.5 26.0 Z" /><path desc="l 6 p 6" fill="rgb(87,119,43)" stroke="rgb(87,119,43)" stroke-width="1" opacity="0.6431372549019608" d="M 857.5 26.0 Q 862.2999877929688 25.299999237060547 864.0 27.5 L 861.5 28.0 L 859.5 27.0 Q 856.5 27.5 857.5 26.0 Z" /><path desc="l 11 p 11" fill="rgb(38,52,19)" stroke="rgb(38,52,19)" stroke-width="1" opacity="0.2823529411764706" d="M 129.5 27.0 L 132.0 27.5 L 127.5 29.0 L 127.5 28.0 L 129.5 27.0 Z" /><path desc="l 11 p 12" fill="rgb(38,52,19)" stroke="rgb(38,52,19)" stroke-width="1" opacity="0.2823529411764706" d="M 868.5 27.0 L 873.0 28.5 L 871.5 29.0 L 869.5 28.0 L 868.5 27.0 Z" /><path desc="l 6 p 7" fill="rgb(87,119,43)" stroke="rgb(87,119,43)" stroke-width="1" opacity="0.6431372549019608" d="M 131.5 28.0 L 135.0 28.5 Q 87.0999984741211 43.099998474121094 57.0 75.5 Q 37.20000076293945 96.19999694824219 24.5 124.0 L 24.0 122.5 Q 40.099998474121094 87.5999984741211 67.5 64.0 Q 85.69999694824219 47.20000076293945 110.5 37.0 L 131.5 28.0 Z" /><path desc="l 6 p 8" fill="rgb(87,119,43)" stroke="rgb(87,119,43)" stroke-width="1" opacity="0.6431372549019608" d="M 865.5 28.0 Q 918.2000122070312 43.29999923706055 949.0 80.5 Q 965.5 99.0 976.0 123.5 L 975.0 123.5 Q 959.7000122070312 90.30000305175781 934.5 67.0 Q 913.5999755859375 47.400001525878906 884.5 36.0 L 871.0 30.5 L 866.5 29.0 L 865.5 28.0 Z" /><path desc="l 11 p 13" fill="rgb(38,52,19)" stroke="rgb(38,52,19)" stroke-width="1" opacity="0.2823529411764706" d="M 123.5 29.0 L 126.0 29.5 L 121.5 31.0 L 121.5 30.0 L 123.5 29.0 Z" /><path desc="l 11 p 14" fill="rgb(38,52,19)" stroke="rgb(38,52,19)" stroke-width="1" opacity="0.2823529411764706" d="M 874.5 29.0 L 879.0 30.5 L 877.5 31.0 L 875.5 30.0 L 874.5 29.0 Z" /><path desc="l 11 p 15" fill="rgb(38,52,19)" stroke="rgb(38,52,19)" stroke-width="1" opacity="0.2823529411764706" d="M 118.5 31.0 L 120.0 31.5 L 116.5 33.0 L 116.5 32.0 L 118.5 31.0 Z" /><path desc="l 11 p 16" fill="rgb(38,52,19)" stroke="rgb(38,52,19)" stroke-width="1" opacity="0.2823529411764706" d="M 880.5 31.0 L 884.0 32.5 L 882.5 33.0 L 880.5 31.0 Z" /><path desc="l 11 p 17" fill="rgb(38,52,19)" stroke="rgb(38,52,19)" stroke-width="1" opacity="0.2823529411764706" d="M 113.5 33.0 L 115.0 33.5 L 109.5 36.0 L 109.5 35.0 L 113.5 33.0 Z" /><path desc="l 11 p 18" fill="rgb(38,52,19)" stroke="rgb(38,52,19)" stroke-width="1" opacity="0.2823529411764706" d="M 885.5 33.0 L 891.0 35.5 L 889.5 36.0 L 887.0 34.5 L 885.5 33.0 Z" /><path desc="l 11 p 19" fill="rgb(38,52,19)" stroke="rgb(38,52,19)" stroke-width="1" opacity="0.2823529411764706" d="M 106.5 36.0 L 108.0 36.5 L 103.5 39.0 L 104.5 37.0 L 106.5 36.0 Z" /><path desc="l 7 p 3" fill="rgb(62,85,30)" stroke="rgb(62,85,30)" stroke-width="1" opacity="0.4588235294117647" d="M 105.5 38.0 L 104.5 40.0 L 105.5 38.0 Z" /><path desc="l 11 p 20" fill="rgb(38,52,19)" stroke="rgb(38,52,19)" stroke-width="1" opacity="0.2823529411764706" d="M 896.5 38.0 L 899.0 39.5 L 897.5 39.0 L 896.5 38.0 Z" /><path desc="l 11 p 21" fill="rgb(38,52,19)" stroke="rgb(38,52,19)" stroke-width="1" opacity="0.2823529411764706" d="M 99.5 40.0 L 98.5 42.0 Q 81.5999984741211 49.599998474121094 69.5 62.0 L 73.5 57.0 L 99.5 40.0 Z" /><path desc="l 7 p 4" fill="rgb(62,85,30)" stroke="rgb(62,85,30)" stroke-width="1" opacity="0.4588235294117647" d="M 101.5 40.0 L 100.5 42.0 L 101.5 40.0 Z" /><path desc="l 7 p 5" fill="rgb(62,85,30)" stroke="rgb(62,85,30)" stroke-width="1" opacity="0.4588235294117647" d="M 898.5 40.0 L 899.5 42.0 L 898.5 40.0 Z" /><path desc="l 11 p 22" fill="rgb(38,52,19)" stroke="rgb(38,52,19)" stroke-width="1" opacity="0.2823529411764706" d="M 900.5 40.0 L 911.0 46.5 L 909.5 46.0 L 904.5 43.0 Q 900.5 42.5 900.5 40.0 Z" /><path desc="l 7 p 6" fill="rgb(62,85,30)" stroke="rgb(62,85,30)" stroke-width="1" opacity="0.4588235294117647" d="M 89.5 47.0 L 88.5 49.0 L 89.5 47.0 Z" /><path desc="l 11 p 23" fill="rgb(38,52,19)" stroke="rgb(38,52,19)" stroke-width="1" opacity="0.2823529411764706" d="M 912.5 47.0 L 931.0 61.5 L 926.5 58.0 L 917.5 52.0 L 912.5 47.0 Z" /><path desc="l 7 p 7" fill="rgb(62,85,30)" stroke="rgb(62,85,30)" stroke-width="1" opacity="0.4588235294117647" d="M 83.5 51.0 L 82.5 53.0 L 83.5 51.0 Z" /><path desc="l 5 p 2" fill="rgb(54,74,27)" stroke="rgb(54,74,27)" stroke-width="1" opacity="0.4" d="M 81.5 52.0 L 80.5 54.0 L 81.5 52.0 Z" /><path desc="l 7 p 8" fill="rgb(62,85,30)" stroke="rgb(62,85,30)" stroke-width="1" opacity="0.4588235294117647" d="M 919.5 53.0 L 920.5 55.0 L 919.5 53.0 Z" /><path desc="l 7 p 9" fill="rgb(62,85,30)" stroke="rgb(62,85,30)" stroke-width="1" opacity="0.4588235294117647" d="M 76.5 56.0 L 75.5 58.0 L 76.5 56.0 Z" /><path desc="l 7 p 10" fill="rgb(62,85,30)" stroke="rgb(62,85,30)" stroke-width="1" opacity="0.4588235294117647" d="M 923.5 56.0 L 924.5 58.0 L 923.5 56.0 Z" /><path desc="l 7 p 11" fill="rgb(62,85,30)" stroke="rgb(62,85,30)" stroke-width="1" opacity="0.4588235294117647" d="M 71.5 60.0 L 68.5 64.0 L 71.5 60.0 Z" /><path desc="l 7 p 12" fill="rgb(62,85,30)" stroke="rgb(62,85,30)" stroke-width="1" opacity="0.4588235294117647" d="M 928.5 60.0 L 930.5 63.0 L 928.5 60.0 Z" /><path desc="l 12 p 0" fill="rgb(45,61,22)" stroke="rgb(45,61,22)" stroke-width="1" opacity="0.32941176470588235" d="M 931.5 62.0 L 932.5 64.0 L 931.5 62.0 Z" /><path desc="l 11 p 24" fill="rgb(38,52,19)" stroke="rgb(38,52,19)" stroke-width="1" opacity="0.2823529411764706" d="M 65.5 64.0 L 49.0 81.5 Q 36.400001525878906 95.9000015258789 27.5 114.0 L 27.0 112.5 Q 42.20000076293945 84.19999694824219 65.5 64.0 Z" /><path desc="l 11 p 25" fill="rgb(38,52,19)" stroke="rgb(38,52,19)" stroke-width="1" opacity="0.2823529411764706" d="M 934.5 64.0 Q 957.4000244140625 83.5999984741211 972.0 111.5 L 970.0 110.5 Q 960.9000244140625 91.0999984741211 946.5 77.0 L 934.5 64.0 Z" /><path desc="l 7 p 13" fill="rgb(62,85,30)" stroke="rgb(62,85,30)" stroke-width="1" opacity="0.4588235294117647" d="M 60.5 70.0 L 56.5 75.0 L 60.5 70.0 Z" /><path desc="l 7 p 14" fill="rgb(62,85,30)" stroke="rgb(62,85,30)" stroke-width="1" opacity="0.4588235294117647" d="M 939.5 70.0 L 943.5 75.0 L 939.5 70.0 Z" /><path desc="l 5 p 3" fill="rgb(54,74,27)" stroke="rgb(54,74,27)" stroke-width="1" opacity="0.4" d="M 53.5 77.0 L 52.5 79.0 L 53.5 77.0 Z" /><path desc="l 5 p 4" fill="rgb(54,74,27)" stroke="rgb(54,74,27)" stroke-width="1" opacity="0.4" d="M 946.5 77.0 L 947.5 79.0 L 946.5 77.0 Z" /><path desc="l 12 p 1" fill="rgb(45,61,22)" stroke="rgb(45,61,22)" stroke-width="1" opacity="0.32941176470588235" d="M 51.5 79.0 L 49.5 82.0 L 51.5 79.0 Z" /><path desc="l 12 p 2" fill="rgb(45,61,22)" stroke="rgb(45,61,22)" stroke-width="1" opacity="0.32941176470588235" d="M 948.5 79.0 L 949.5 81.0 L 948.5 79.0 Z" /><path desc="l 7 p 15" fill="rgb(62,85,30)" stroke="rgb(62,85,30)" stroke-width="1" opacity="0.4588235294117647" d="M 51.5 80.0 L 48.5 84.0 L 51.5 80.0 Z" /><path desc="l 7 p 16" fill="rgb(62,85,30)" stroke="rgb(62,85,30)" stroke-width="1" opacity="0.4588235294117647" d="M 949.5 81.0 L 951.5 84.0 L 949.5 81.0 Z" /><path desc="l 5 p 5" fill="rgb(54,74,27)" stroke="rgb(54,74,27)" stroke-width="1" opacity="0.4" d="M 47.5 84.0 L 46.5 86.0 L 47.5 84.0 Z" /><path desc="l 5 p 6" fill="rgb(54,74,27)" stroke="rgb(54,74,27)" stroke-width="1" opacity="0.4" d="M 952.5 84.0 L 953.5 86.0 L 952.5 84.0 Z" /><path desc="l 7 p 17" fill="rgb(62,85,30)" stroke="rgb(62,85,30)" stroke-width="1" opacity="0.4588235294117647" d="M 45.5 87.0 L 44.5 89.0 L 45.5 87.0 Z" /><path desc="l 7 p 18" fill="rgb(62,85,30)" stroke="rgb(62,85,30)" stroke-width="1" opacity="0.4588235294117647" d="M 954.5 87.0 L 955.5 89.0 L 954.5 87.0 Z" /><path desc="l 5 p 7" fill="rgb(54,74,27)" stroke="rgb(54,74,27)" stroke-width="1" opacity="0.4" d="M 43.5 89.0 L 42.5 91.0 L 43.5 89.0 Z" /><path desc="l 7 p 19" fill="rgb(62,85,30)" stroke="rgb(62,85,30)" stroke-width="1" opacity="0.4588235294117647" d="M 42.5 91.0 L 41.5 93.0 L 42.5 91.0 Z" /><path desc="l 7 p 20" fill="rgb(62,85,30)" stroke="rgb(62,85,30)" stroke-width="1" opacity="0.4588235294117647" d="M 957.5 91.0 L 958.5 93.0 L 957.5 91.0 Z" /><path desc="l 11 p 26" fill="rgb(38,52,19)" stroke="rgb(38,52,19)" stroke-width="1" opacity="0.2823529411764706" d="M 26.5 115.0 L 26.0 116.5 L 25.5 118.0 L 25.0 116.5 L 26.5 115.0 Z" /><path desc="l 11 p 27" fill="rgb(38,52,19)" stroke="rgb(38,52,19)" stroke-width="1" opacity="0.2823529411764706" d="M 973.5 115.0 L 975.0 117.5 L 974.0 117.5 L 973.5 115.0 Z" /><path desc="l 11 p 28" fill="rgb(38,52,19)" stroke="rgb(38,52,19)" stroke-width="1" opacity="0.2823529411764706" d="M 23.5 121.0 L 24.0 122.5 L 21.5 127.0 L 21.0 125.5 L 23.5 121.0 Z" /><path desc="l 11 p 29" fill="rgb(38,52,19)" stroke="rgb(38,52,19)" stroke-width="1" opacity="0.2823529411764706" d="M 976.5 121.0 L 979.0 126.5 L 978.0 126.5 L 976.5 121.0 Z" /><path desc="l 7 p 21" fill="rgb(62,85,30)" stroke="rgb(62,85,30)" stroke-width="1" opacity="0.4588235294117647" d="M 23.5 124.0 L 22.5 126.0 L 23.5 124.0 Z" /><path desc="l 6 p 9" fill="rgb(87,119,43)" stroke="rgb(87,119,43)" stroke-width="1" opacity="0.6431372549019608" d="M 23.5 125.0 L 24.0 126.5 L 20.0 135.5 L 16.0 148.5 L 12.0 166.5 L 10.5 180.0 L 10.0 190.5 L 10.0 220.5 L 10.0 340.5 L 10.0 819.5 Q 12.300000190734863 820.7999877929688 11.0 825.5 L 13.0 838.5 L 16.0 851.5 L 20.0 864.5 L 19.0 864.5 L 15.0 852.5 L 13.0 843.5 L 10.0 827.5 L 9.0 819.5 L 8.5 806.0 L 8.0 767.5 L 8.0 653.5 L 8.0 194.5 Q 10.5 193.0 9.0 187.5 L 10.0 170.5 L 16.0 144.5 Q 18.200000762939453 133.1999969482422 23.5 125.0 Z" /><path desc="l 6 p 10" fill="rgb(87,119,43)" stroke="rgb(87,119,43)" stroke-width="1" opacity="0.6431372549019608" d="M 976.5 125.0 L 980.0 133.5 L 979.0 133.5 L 976.5 125.0 Z" /><path desc="l 11 p 30" fill="rgb(38,52,19)" stroke="rgb(38,52,19)" stroke-width="1" opacity="0.2823529411764706" d="M 17.5 135.0 L 18.0 137.5 L 17.0 137.5 L 17.5 135.0 Z" /><path desc="l 6 p 11" fill="rgb(87,119,43)" stroke="rgb(87,119,43)" stroke-width="1" opacity="0.6431372549019608" d="M 980.5 135.0 L 985.0 147.5 L 987.0 156.5 L 990.0 172.5 L 991.0 180.5 L 991.5 194.0 L 992.0 232.5 L 992.0 346.5 L 992.0 805.5 Q 989.5 807.0 991.0 812.5 L 990.0 826.5 L 989.0 833.5 L 987.0 843.5 L 984.0 854.5 L 980.5 865.0 L 980.0 863.5 L 986.0 843.5 L 988.0 833.5 L 989.0 825.5 L 990.0 809.5 L 990.0 779.5 L 990.0 659.5 L 990.0 180.5 Q 987.7999877929688 179.3000030517578 989.0 174.5 L 987.0 161.5 L 980.5 135.0 Z" /><path desc="l 11 p 31" fill="rgb(38,52,19)" stroke="rgb(38,52,19)" stroke-width="1" opacity="0.2823529411764706" d="M 15.5 141.0 L 16.0 143.5 L 15.0 143.5 L 15.5 141.0 Z" /><path desc="l 11 p 32" fill="rgb(38,52,19)" stroke="rgb(38,52,19)" stroke-width="1" opacity="0.2823529411764706" d="M 984.5 141.0 L 985.0 143.5 L 984.0 143.5 L 984.5 141.0 Z" /><path desc="l 11 p 33" fill="rgb(38,52,19)" stroke="rgb(38,52,19)" stroke-width="1" opacity="0.2823529411764706" d="M 13.5 148.0 L 14.0 150.5 L 13.0 150.5 L 13.5 148.0 Z" /><path desc="l 11 p 34" fill="rgb(38,52,19)" stroke="rgb(38,52,19)" stroke-width="1" opacity="0.2823529411764706" d="M 986.5 148.0 L 987.0 150.5 L 986.0 150.5 L 986.5 148.0 Z" /><path desc="l 11 p 35" fill="rgb(38,52,19)" stroke="rgb(38,52,19)" stroke-width="1" opacity="0.2823529411764706" d="M 11.5 156.0 L 12.0 159.5 L 11.0 159.5 L 11.5 156.0 Z" /><path desc="l 11 p 36" fill="rgb(38,52,19)" stroke="rgb(38,52,19)" stroke-width="1" opacity="0.2823529411764706" d="M 988.5 156.0 L 989.0 159.5 L 988.0 159.5 L 988.5 156.0 Z" /><path desc="l 11 p 37" fill="rgb(38,52,19)" stroke="rgb(38,52,19)" stroke-width="1" opacity="0.2823529411764706" d="M 989.5 161.0 L 990.0 163.5 L 989.0 163.5 L 989.5 161.0 Z" /><path desc="l 11 p 38" fill="rgb(38,52,19)" stroke="rgb(38,52,19)" stroke-width="1" opacity="0.2823529411764706" d="M 9.5 166.0 L 10.0 171.5 L 9.0 171.5 L 9.5 166.0 Z" /><path desc="l 11 p 39" fill="rgb(38,52,19)" stroke="rgb(38,52,19)" stroke-width="1" opacity="0.2823529411764706" d="M 990.5 166.0 L 991.0 171.5 L 990.0 171.5 L 990.5 166.0 Z" /><path desc="l 11 p 40" fill="rgb(38,52,19)" stroke="rgb(38,52,19)" stroke-width="1" opacity="0.2823529411764706" d="M 8.5 173.0 L 9.0 176.5 L 8.0 176.5 L 8.5 173.0 Z" /><path desc="l 11 p 41" fill="rgb(38,52,19)" stroke="rgb(38,52,19)" stroke-width="1" opacity="0.2823529411764706" d="M 991.5 173.0 L 992.0 177.5 L 991.0 177.5 L 991.5 173.0 Z" /><path desc="l 7 p 22" fill="rgb(62,85,30)" stroke="rgb(62,85,30)" stroke-width="1" opacity="0.4588235294117647" d="M 9.5 175.0 L 10.0 177.5 L 9.0 177.5 L 9.5 175.0 Z" /><path desc="l 7 p 23" fill="rgb(62,85,30)" stroke="rgb(62,85,30)" stroke-width="1" opacity="0.4588235294117647" d="M 990.5 175.0 L 991.0 177.5 L 990.0 177.5 L 990.5 175.0 Z" /><path desc="l 12 p 3" fill="rgb(45,61,22)" stroke="rgb(45,61,22)" stroke-width="1" opacity="0.32941176470588235" d="M 8.5 177.0 L 9.0 179.5 L 8.0 179.5 L 8.5 177.0 Z" /><path desc="l 5 p 8" fill="rgb(54,74,27)" stroke="rgb(54,74,27)" stroke-width="1" opacity="0.4" d="M 8.5 180.0 L 9.0 182.5 L 8.0 182.5 L 8.5 180.0 Z" /><path desc="l 5 p 9" fill="rgb(54,74,27)" stroke="rgb(54,74,27)" stroke-width="1" opacity="0.4" d="M 991.5 180.0 L 992.0 182.5 L 991.0 182.5 L 991.5 180.0 Z" /><path desc="l 11 p 42" fill="rgb(38,52,19)" stroke="rgb(38,52,19)" stroke-width="1" opacity="0.2823529411764706" d="M 7.5 183.0 L 8.0 816.5 L 7.0 816.5 L 7.5 183.0 Z" /><path desc="l 7 p 24" fill="rgb(62,85,30)" stroke="rgb(62,85,30)" stroke-width="1" opacity="0.4588235294117647" d="M 8.5 183.0 L 9.0 193.5 L 8.0 193.5 L 8.5 183.0 Z" /><path desc="l 7 p 25" fill="rgb(62,85,30)" stroke="rgb(62,85,30)" stroke-width="1" opacity="0.4588235294117647" d="M 991.5 183.0 L 992.0 193.5 L 991.0 193.5 L 991.5 183.0 Z" /><path desc="l 11 p 43" fill="rgb(38,52,19)" stroke="rgb(38,52,19)" stroke-width="1" opacity="0.2823529411764706" d="M 992.5 183.0 L 993.0 816.5 L 992.0 816.5 L 992.5 183.0 Z" /><path desc="l 1 p 0" fill="rgb(248,249,244)" stroke="rgb(248,249,244)" stroke-width="1" opacity="1.0" d="M 701.5 233.0 L 717.0 234.5 Q 735.2000122070312 237.3000030517578 744.0 249.5 L 751.5 262.0 L 755.5 278.0 L 756.0 290.5 L 752.5 304.0 Q 749.0999755859375 315.1000061035156 741.5 322.0 L 740.0 322.5 L 739.5 324.0 Q 733.5 330.0 724.5 333.0 Q 713.2999877929688 338.29998779296875 694.5 336.0 Q 676.5999755859375 331.8999938964844 666.0 320.5 Q 657.5 312.0 655.0 297.5 L 654.0 290.5 L 654.0 273.5 L 658.0 261.5 Q 663.4000244140625 249.89999389648438 673.5 243.0 L 684.0 237.5 L 693.5 235.0 L 701.5 233.0 Z" /><path desc="l 1 p 1" fill="rgb(248,249,244)" stroke="rgb(248,249,244)" stroke-width="1" opacity="1.0" d="M 353.5 266.0 L 434.5 266.0 L 454.5 266.0 Q 462.5 264.5 465.0 268.5 L 573.0 573.5 L 601.0 652.5 L 611.5 682.0 L 614.0 689.5 L 615.0 695.5 Q 613.7999877929688 699.2999877929688 607.5 698.0 L 590.5 698.0 L 522.5 698.0 L 518.5 693.0 L 515.5 685.0 L 507.0 660.5 L 491.0 614.5 L 487.0 602.5 Q 486.79998779296875 597.7999877929688 483.5 596.0 L 371.5 596.0 L 343.5 596.0 L 336.5 596.0 Q 332.79998779296875 595.2999877929688 332.0 597.5 L 311.0 662.5 L 304.0 683.5 L 299.5 696.0 Q 297.5 699.0 291.5 698.0 L 276.5 698.0 L 214.5 698.0 Q 210.5 696.5 212.0 689.5 L 308.0 414.5 L 337.5 329.0 L 344.0 310.5 L 348.0 296.5 L 350.0 285.5 L 350.0 273.5 Q 349.0 267.0 353.5 266.0 Z" /><path desc="l 0 p 1" fill="rgb(136,185,68)" stroke="rgb(136,185,68)" stroke-width="1" opacity="0.996078431372549" d="M 406.5 344.0 L 409.0 345.5 L 442.0 453.5 L 452.0 485.5 L 460.0 510.5 Q 458.5 514.5 451.5 513.0 L 433.5 513.0 L 359.5 513.0 L 357.0 511.5 L 406.5 344.0 Z" /><path desc="l 1 p 2" fill="rgb(248,249,244)" stroke="rgb(248,249,244)" stroke-width="1" opacity="1.0" d="M 661.5 371.0 L 724.5 371.0 L 740.5 371.0 Q 746.5999755859375 369.8999938964844 749.0 372.5 L 750.0 379.5 L 750.0 394.5 L 750.0 454.5 L 750.0 694.5 Q 748.7999877929688 699.2999877929688 741.5 698.0 L 725.5 698.0 L 661.5 698.0 Q 656.9000244140625 696.0999755859375 658.0 688.5 L 658.0 673.5 L 658.0 613.5 L 658.0 374.5 L 659.5 372.0 L 661.5 371.0 Z" /><path desc="l 7 p 26" fill="rgb(62,85,30)" stroke="rgb(62,85,30)" stroke-width="1" opacity="0.4588235294117647" d="M 8.5 806.0 L 9.0 816.5 L 8.0 816.5 L 8.5 806.0 Z" /><path desc="l 7 p 27" fill="rgb(62,85,30)" stroke="rgb(62,85,30)" stroke-width="1" opacity="0.4588235294117647" d="M 991.5 806.0 L 992.0 816.5 L 991.0 816.5 L 991.5 806.0 Z" /><path desc="l 5 p 10" fill="rgb(54,74,27)" stroke="rgb(54,74,27)" stroke-width="1" opacity="0.4" d="M 8.5 817.0 L 9.0 819.5 L 8.0 819.5 L 8.5 817.0 Z" /><path desc="l 5 p 11" fill="rgb(54,74,27)" stroke="rgb(54,74,27)" stroke-width="1" opacity="0.4" d="M 991.5 817.0 L 992.0 819.5 L 991.0 819.5 L 991.5 817.0 Z" /><path desc="l 12 p 4" fill="rgb(45,61,22)" stroke="rgb(45,61,22)" stroke-width="1" opacity="0.32941176470588235" d="M 8.5 820.0 L 9.0 822.5 L 8.0 822.5 L 8.5 820.0 Z" /><path desc="l 7 p 28" fill="rgb(62,85,30)" stroke="rgb(62,85,30)" stroke-width="1" opacity="0.4588235294117647" d="M 9.5 822.0 L 10.0 824.5 L 9.0 824.5 L 9.5 822.0 Z" /><path desc="l 7 p 29" fill="rgb(62,85,30)" stroke="rgb(62,85,30)" stroke-width="1" opacity="0.4588235294117647" d="M 990.5 822.0 L 991.0 824.5 L 990.0 824.5 L 990.5 822.0 Z" /><path desc="l 11 p 44" fill="rgb(38,52,19)" stroke="rgb(38,52,19)" stroke-width="1" opacity="0.2823529411764706" d="M 991.5 822.0 L 992.0 826.5 L 991.0 826.5 L 991.5 822.0 Z" /><path desc="l 11 p 45" fill="rgb(38,52,19)" stroke="rgb(38,52,19)" stroke-width="1" opacity="0.2823529411764706" d="M 8.5 823.0 L 9.0 826.5 L 8.0 826.5 L 8.5 823.0 Z" /><path desc="l 11 p 46" fill="rgb(38,52,19)" stroke="rgb(38,52,19)" stroke-width="1" opacity="0.2823529411764706" d="M 9.5 828.0 L 10.0 833.5 L 9.0 833.5 L 9.5 828.0 Z" /><path desc="l 11 p 47" fill="rgb(38,52,19)" stroke="rgb(38,52,19)" stroke-width="1" opacity="0.2823529411764706" d="M 990.5 828.0 L 991.0 833.5 L 990.0 833.5 L 990.5 828.0 Z" /><path desc="l 11 p 48" fill="rgb(38,52,19)" stroke="rgb(38,52,19)" stroke-width="1" opacity="0.2823529411764706" d="M 10.5 836.0 L 11.0 838.5 L 10.0 838.5 L 10.5 836.0 Z" /><path desc="l 11 p 49" fill="rgb(38,52,19)" stroke="rgb(38,52,19)" stroke-width="1" opacity="0.2823529411764706" d="M 989.5 836.0 L 990.0 838.5 L 989.0 838.5 L 989.5 836.0 Z" /><path desc="l 11 p 50" fill="rgb(38,52,19)" stroke="rgb(38,52,19)" stroke-width="1" opacity="0.2823529411764706" d="M 11.5 840.0 L 12.0 843.5 L 11.0 843.5 L 11.5 840.0 Z" /><path desc="l 11 p 51" fill="rgb(38,52,19)" stroke="rgb(38,52,19)" stroke-width="1" opacity="0.2823529411764706" d="M 988.5 840.0 L 989.0 843.5 L 988.0 843.5 L 988.5 840.0 Z" /><path desc="l 11 p 52" fill="rgb(38,52,19)" stroke="rgb(38,52,19)" stroke-width="1" opacity="0.2823529411764706" d="M 13.5 849.0 L 14.0 851.5 L 13.0 851.5 L 13.5 849.0 Z" /><path desc="l 11 p 53" fill="rgb(38,52,19)" stroke="rgb(38,52,19)" stroke-width="1" opacity="0.2823529411764706" d="M 986.5 849.0 L 987.0 851.5 L 986.0 851.5 L 986.5 849.0 Z" /><path desc="l 11 p 54" fill="rgb(38,52,19)" stroke="rgb(38,52,19)" stroke-width="1" opacity="0.2823529411764706" d="M 15.5 856.0 L 16.0 858.5 L 15.0 858.5 L 15.5 856.0 Z" /><path desc="l 11 p 55" fill="rgb(38,52,19)" stroke="rgb(38,52,19)" stroke-width="1" opacity="0.2823529411764706" d="M 984.5 856.0 L 985.0 858.5 L 984.0 858.5 L 984.5 856.0 Z" /><path desc="l 11 p 56" fill="rgb(38,52,19)" stroke="rgb(38,52,19)" stroke-width="1" opacity="0.2823529411764706" d="M 17.5 862.0 L 19.0 866.5 L 18.0 866.5 L 17.5 862.0 Z" /><path desc="l 6 p 12" fill="rgb(87,119,43)" stroke="rgb(87,119,43)" stroke-width="1" opacity="0.6431372549019608" d="M 20.5 866.0 L 24.0 874.5 L 22.0 873.5 L 20.5 866.0 Z" /><path desc="l 6 p 13" fill="rgb(87,119,43)" stroke="rgb(87,119,43)" stroke-width="1" opacity="0.6431372549019608" d="M 979.5 866.0 L 980.0 868.5 L 976.5 875.0 L 976.0 873.5 L 979.5 866.0 Z" /><path desc="l 11 p 57" fill="rgb(38,52,19)" stroke="rgb(38,52,19)" stroke-width="1" opacity="0.2823529411764706" d="M 21.5 873.0 L 24.0 878.5 L 23.0 878.5 L 21.5 873.0 Z" /><path desc="l 11 p 58" fill="rgb(38,52,19)" stroke="rgb(38,52,19)" stroke-width="1" opacity="0.2823529411764706" d="M 978.5 873.0 L 979.0 874.5 L 976.5 879.0 L 976.0 877.5 L 978.5 873.0 Z" /><path desc="l 7 p 30" fill="rgb(62,85,30)" stroke="rgb(62,85,30)" stroke-width="1" opacity="0.4588235294117647" d="M 22.5 874.0 L 23.5 876.0 L 22.5 874.0 Z" /><path desc="l 6 p 14" fill="rgb(87,119,43)" stroke="rgb(87,119,43)" stroke-width="1" opacity="0.6431372549019608" d="M 24.5 876.0 Q 39.900001525878906 909.5999755859375 65.5 933.0 Q 93.5999984741211 958.9000244140625 135.0 971.5 L 131.5 972.0 L 106.0 961.5 Q 74.0 946.0 52.0 920.5 Q 39.0 906.5 30.0 888.5 L 25.5 880.0 L 24.5 876.0 Z" /><path desc="l 6 p 15" fill="rgb(87,119,43)" stroke="rgb(87,119,43)" stroke-width="1" opacity="0.6431372549019608" d="M 975.5 876.0 L 976.0 877.5 Q 959.9000244140625 912.4000244140625 932.5 936.0 Q 919.2999877929688 948.2999877929688 902.5 957.0 Q 886.4000244140625 966.9000244140625 865.5 972.0 L 865.5 971.0 Q 913.5 957.0 943.0 924.5 Q 962.7999877929688 903.7999877929688 975.5 876.0 Z" /><path desc="l 11 p 59" fill="rgb(38,52,19)" stroke="rgb(38,52,19)" stroke-width="1" opacity="0.2823529411764706" d="M 25.5 882.0 L 27.0 884.5 L 25.0 883.5 L 25.5 882.0 Z" /><path desc="l 11 p 60" fill="rgb(38,52,19)" stroke="rgb(38,52,19)" stroke-width="1" opacity="0.2823529411764706" d="M 974.5 882.0 L 975.0 883.5 L 973.0 884.5 L 974.5 882.0 Z" /><path desc="l 7 p 31" fill="rgb(62,85,30)" stroke="rgb(62,85,30)" stroke-width="1" opacity="0.4588235294117647" d="M 971.5 886.0 L 970.5 888.0 L 971.5 886.0 Z" /><path desc="l 11 p 61" fill="rgb(38,52,19)" stroke="rgb(38,52,19)" stroke-width="1" opacity="0.2823529411764706" d="M 28.5 888.0 L 35.0 898.5 L 33.0 897.5 L 28.5 888.0 Z" /><path desc="l 11 p 62" fill="rgb(38,52,19)" stroke="rgb(38,52,19)" stroke-width="1" opacity="0.2823529411764706" d="M 971.5 888.0 L 971.0 889.5 L 965.5 899.0 L 966.0 897.5 L 971.5 888.0 Z" /><path desc="l 11 p 63" fill="rgb(38,52,19)" stroke="rgb(38,52,19)" stroke-width="1" opacity="0.2823529411764706" d="M 35.5 900.0 Q 48.29999923706055 920.2000122070312 66.0 935.5 L 48.0 918.5 L 38.5 906.0 L 35.5 900.0 Z" /><path desc="l 11 p 64" fill="rgb(38,52,19)" stroke="rgb(38,52,19)" stroke-width="1" opacity="0.2823529411764706" d="M 964.5 900.0 L 964.0 901.5 Q 952.0 921.5 934.5 936.0 L 950.0 919.5 L 964.5 900.0 Z" /><path desc="l 7 p 32" fill="rgb(62,85,30)" stroke="rgb(62,85,30)" stroke-width="1" opacity="0.4588235294117647" d="M 41.5 907.0 L 42.5 909.0 L 41.5 907.0 Z" /><path desc="l 7 p 33" fill="rgb(62,85,30)" stroke="rgb(62,85,30)" stroke-width="1" opacity="0.4588235294117647" d="M 958.5 907.0 L 957.5 909.0 L 958.5 907.0 Z" /><path desc="l 5 p 12" fill="rgb(54,74,27)" stroke="rgb(54,74,27)" stroke-width="1" opacity="0.4" d="M 42.5 909.0 L 43.5 911.0 L 42.5 909.0 Z" /><path desc="l 7 p 34" fill="rgb(62,85,30)" stroke="rgb(62,85,30)" stroke-width="1" opacity="0.4588235294117647" d="M 44.5 911.0 L 45.5 913.0 L 44.5 911.0 Z" /><path desc="l 7 p 35" fill="rgb(62,85,30)" stroke="rgb(62,85,30)" stroke-width="1" opacity="0.4588235294117647" d="M 955.5 911.0 L 954.5 913.0 L 955.5 911.0 Z" /><path desc="l 5 p 13" fill="rgb(54,74,27)" stroke="rgb(54,74,27)" stroke-width="1" opacity="0.4" d="M 46.5 914.0 L 47.5 916.0 L 46.5 914.0 Z" /><path desc="l 5 p 14" fill="rgb(54,74,27)" stroke="rgb(54,74,27)" stroke-width="1" opacity="0.4" d="M 953.5 914.0 L 952.5 916.0 L 953.5 914.0 Z" /><path desc="l 7 p 36" fill="rgb(62,85,30)" stroke="rgb(62,85,30)" stroke-width="1" opacity="0.4588235294117647" d="M 48.5 916.0 L 51.5 920.0 L 48.5 916.0 Z" /><path desc="l 7 p 37" fill="rgb(62,85,30)" stroke="rgb(62,85,30)" stroke-width="1" opacity="0.4588235294117647" d="M 951.5 916.0 L 948.5 920.0 L 951.5 916.0 Z" /><path desc="l 12 p 5" fill="rgb(45,61,22)" stroke="rgb(45,61,22)" stroke-width="1" opacity="0.32941176470588235" d="M 50.5 919.0 L 51.5 921.0 L 50.5 919.0 Z" /><path desc="l 12 p 6" fill="rgb(45,61,22)" stroke="rgb(45,61,22)" stroke-width="1" opacity="0.32941176470588235" d="M 949.5 919.0 L 948.5 921.0 L 949.5 919.0 Z" /><path desc="l 5 p 15" fill="rgb(54,74,27)" stroke="rgb(54,74,27)" stroke-width="1" opacity="0.4" d="M 52.5 921.0 L 53.5 923.0 L 52.5 921.0 Z" /><path desc="l 5 p 16" fill="rgb(54,74,27)" stroke="rgb(54,74,27)" stroke-width="1" opacity="0.4" d="M 947.5 921.0 L 946.5 923.0 L 947.5 921.0 Z" /><path desc="l 7 p 38" fill="rgb(62,85,30)" stroke="rgb(62,85,30)" stroke-width="1" opacity="0.4588235294117647" d="M 943.5 925.0 L 939.5 930.0 L 943.5 925.0 Z" /><path desc="l 7 p 39" fill="rgb(62,85,30)" stroke="rgb(62,85,30)" stroke-width="1" opacity="0.4588235294117647" d="M 58.5 927.0 L 60.5 930.0 L 58.5 927.0 Z" /><path desc="l 5 p 17" fill="rgb(54,74,27)" stroke="rgb(54,74,27)" stroke-width="1" opacity="0.4" d="M 63.5 932.0 L 64.5 934.0 L 63.5 932.0 Z" /><path desc="l 7 p 40" fill="rgb(62,85,30)" stroke="rgb(62,85,30)" stroke-width="1" opacity="0.4588235294117647" d="M 68.5 936.0 L 71.5 940.0 L 68.5 936.0 Z" /><path desc="l 7 p 41" fill="rgb(62,85,30)" stroke="rgb(62,85,30)" stroke-width="1" opacity="0.4588235294117647" d="M 931.5 936.0 L 928.5 940.0 L 931.5 936.0 Z" /><path desc="l 11 p 65" fill="rgb(38,52,19)" stroke="rgb(38,52,19)" stroke-width="1" opacity="0.2823529411764706" d="M 69.5 938.0 Q 82.69999694824219 950.7999877929688 100.0 959.5 L 98.5 959.0 Q 80.0999984741211 951.0 69.5 938.0 Z" /><path desc="l 11 p 66" fill="rgb(38,52,19)" stroke="rgb(38,52,19)" stroke-width="1" opacity="0.2823529411764706" d="M 930.5 938.0 L 926.5 943.0 L 915.5 951.0 L 917.5 948.0 L 930.5 938.0 Z" /><path desc="l 7 p 42" fill="rgb(62,85,30)" stroke="rgb(62,85,30)" stroke-width="1" opacity="0.4588235294117647" d="M 74.5 941.0 L 76.5 944.0 L 74.5 941.0 Z" /><path desc="l 7 p 43" fill="rgb(62,85,30)" stroke="rgb(62,85,30)" stroke-width="1" opacity="0.4588235294117647" d="M 924.5 942.0 L 923.5 944.0 L 924.5 942.0 Z" /><path desc="l 5 p 18" fill="rgb(54,74,27)" stroke="rgb(54,74,27)" stroke-width="1" opacity="0.4" d="M 80.5 946.0 L 81.5 948.0 L 80.5 946.0 Z" /><path desc="l 5 p 19" fill="rgb(54,74,27)" stroke="rgb(54,74,27)" stroke-width="1" opacity="0.4" d="M 919.5 946.0 L 918.5 948.0 L 919.5 946.0 Z" /><path desc="l 7 p 44" fill="rgb(62,85,30)" stroke="rgb(62,85,30)" stroke-width="1" opacity="0.4588235294117647" d="M 82.5 947.0 L 83.5 949.0 L 82.5 947.0 Z" /><path desc="l 7 p 45" fill="rgb(62,85,30)" stroke="rgb(62,85,30)" stroke-width="1" opacity="0.4588235294117647" d="M 917.5 947.0 L 916.5 949.0 L 917.5 947.0 Z" /><path desc="l 7 p 46" fill="rgb(62,85,30)" stroke="rgb(62,85,30)" stroke-width="1" opacity="0.4588235294117647" d="M 88.5 951.0 L 89.5 953.0 L 88.5 951.0 Z" /><path desc="l 11 p 67" fill="rgb(38,52,19)" stroke="rgb(38,52,19)" stroke-width="1" opacity="0.2823529411764706" d="M 913.5 951.0 L 912.5 953.0 L 913.5 951.0 Z" /><path desc="l 11 p 68" fill="rgb(38,52,19)" stroke="rgb(38,52,19)" stroke-width="1" opacity="0.2823529411764706" d="M 910.5 953.0 L 909.5 955.0 L 900.5 960.0 L 901.5 958.0 L 910.5 953.0 Z" /><path desc="l 7 p 47" fill="rgb(62,85,30)" stroke="rgb(62,85,30)" stroke-width="1" opacity="0.4588235294117647" d="M 93.5 954.0 L 94.5 956.0 L 93.5 954.0 Z" /><path desc="l 7 p 48" fill="rgb(62,85,30)" stroke="rgb(62,85,30)" stroke-width="1" opacity="0.4588235294117647" d="M 906.5 954.0 L 905.5 956.0 L 906.5 954.0 Z" /><path desc="l 7 p 49" fill="rgb(62,85,30)" stroke="rgb(62,85,30)" stroke-width="1" opacity="0.4588235294117647" d="M 100.5 958.0 L 101.5 960.0 L 100.5 958.0 Z" /><path desc="l 7 p 50" fill="rgb(62,85,30)" stroke="rgb(62,85,30)" stroke-width="1" opacity="0.4588235294117647" d="M 899.5 958.0 L 898.5 960.0 L 899.5 958.0 Z" /><path desc="l 7 p 51" fill="rgb(62,85,30)" stroke="rgb(62,85,30)" stroke-width="1" opacity="0.4588235294117647" d="M 104.5 960.0 L 105.5 962.0 L 104.5 960.0 Z" /><path desc="l 7 p 52" fill="rgb(62,85,30)" stroke="rgb(62,85,30)" stroke-width="1" opacity="0.4588235294117647" d="M 895.5 960.0 L 894.5 962.0 L 895.5 960.0 Z" /><path desc="l 11 p 69" fill="rgb(38,52,19)" stroke="rgb(38,52,19)" stroke-width="1" opacity="0.2823529411764706" d="M 107.5 963.0 L 115.0 966.5 L 113.5 967.0 L 109.0 964.5 L 107.5 963.0 Z" /><path desc="l 11 p 70" fill="rgb(38,52,19)" stroke="rgb(38,52,19)" stroke-width="1" opacity="0.2823529411764706" d="M 889.5 964.0 L 891.0 964.5 L 885.5 967.0 L 885.5 966.0 L 889.5 964.0 Z" /><path desc="l 11 p 71" fill="rgb(38,52,19)" stroke="rgb(38,52,19)" stroke-width="1" opacity="0.2823529411764706" d="M 116.5 967.0 L 126.0 970.5 L 123.5 971.0 L 118.5 969.0 L 116.5 967.0 Z" /><path desc="l 11 p 72" fill="rgb(38,52,19)" stroke="rgb(38,52,19)" stroke-width="1" opacity="0.2823529411764706" d="M 882.5 967.0 L 884.0 967.5 L 880.5 969.0 L 880.5 968.0 L 882.5 967.0 Z" /><path desc="l 11 p 73" fill="rgb(38,52,19)" stroke="rgb(38,52,19)" stroke-width="1" opacity="0.2823529411764706" d="M 877.5 969.0 L 879.0 969.5 L 874.5 971.0 L 874.5 970.0 L 877.5 969.0 Z" /><path desc="l 11 p 74" fill="rgb(38,52,19)" stroke="rgb(38,52,19)" stroke-width="1" opacity="0.2823529411764706" d="M 127.5 971.0 L 132.0 972.5 L 129.5 973.0 L 127.5 971.0 Z" /><path desc="l 11 p 75" fill="rgb(38,52,19)" stroke="rgb(38,52,19)" stroke-width="1" opacity="0.2823529411764706" d="M 871.5 971.0 L 873.0 971.5 L 868.5 973.0 L 868.5 972.0 L 871.5 971.0 Z" /><path desc="l 6 p 16" fill="rgb(87,119,43)" stroke="rgb(87,119,43)" stroke-width="1" opacity="0.6431372549019608" d="M 136.5 972.0 L 143.0 973.5 L 138.5 974.0 L 136.5 972.0 Z" /><path desc="l 6 p 17" fill="rgb(87,119,43)" stroke="rgb(87,119,43)" stroke-width="1" opacity="0.6431372549019608" d="M 861.5 972.0 L 864.0 972.5 Q 862.2999877929688 974.7999877929688 857.5 974.0 L 857.5 973.0 L 861.5 972.0 Z" /><path desc="l 11 p 76" fill="rgb(38,52,19)" stroke="rgb(38,52,19)" stroke-width="1" opacity="0.2823529411764706" d="M 133.5 973.0 L 140.0 974.5 L 136.5 975.0 L 134.5 974.0 L 133.5 973.0 Z" /><path desc="l 11 p 77" fill="rgb(38,52,19)" stroke="rgb(38,52,19)" stroke-width="1" opacity="0.2823529411764706" d="M 864.5 973.0 L 867.0 973.5 L 860.5 975.0 L 860.5 974.0 L 864.5 973.0 Z" /><path desc="l 6 p 18" fill="rgb(87,119,43)" stroke="rgb(87,119,43)" stroke-width="1" opacity="0.6431372549019608" d="M 144.5 974.0 L 152.0 975.5 L 147.5 976.0 L 145.5 975.0 L 144.5 974.0 Z" /><path desc="l 6 p 19" fill="rgb(87,119,43)" stroke="rgb(87,119,43)" stroke-width="1" opacity="0.6431372549019608" d="M 853.5 974.0 L 856.0 974.5 L 848.5 976.0 L 848.5 975.0 L 853.5 974.0 Z" /><path desc="l 11 p 78" fill="rgb(38,52,19)" stroke="rgb(38,52,19)" stroke-width="1" opacity="0.2823529411764706" d="M 141.5 975.0 L 149.0 976.5 L 144.5 977.0 L 142.5 976.0 L 141.5 975.0 Z" /><path desc="l 11 p 79" fill="rgb(38,52,19)" stroke="rgb(38,52,19)" stroke-width="1" opacity="0.2823529411764706" d="M 856.5 975.0 L 859.0 975.5 L 851.5 977.0 L 851.5 976.0 L 856.5 975.0 Z" /><path desc="l 6 p 20" fill="rgb(87,119,43)" stroke="rgb(87,119,43)" stroke-width="1" opacity="0.6431372549019608" d="M 154.5 976.0 L 168.0 977.5 L 158.5 978.0 L 156.5 977.0 Q 153.5 977.5 154.5 976.0 Z" /><path desc="l 6 p 21" fill="rgb(87,119,43)" stroke="rgb(87,119,43)" stroke-width="1" opacity="0.6431372549019608" d="M 841.5 976.0 L 846.0 976.5 Q 841.0999755859375 979.0999755859375 832.5 978.0 L 832.5 977.0 L 838.5 977.0 L 841.5 976.0 Z" /><path desc="l 11 p 80" fill="rgb(38,52,19)" stroke="rgb(38,52,19)" stroke-width="1" opacity="0.2823529411764706" d="M 151.5 977.0 L 154.0 977.5 L 151.5 978.0 L 151.5 977.0 Z" /><path desc="l 11 p 81" fill="rgb(38,52,19)" stroke="rgb(38,52,19)" stroke-width="1" opacity="0.2823529411764706" d="M 846.5 977.0 L 849.0 977.5 L 846.5 978.0 L 846.5 977.0 Z" /><path desc="l 11 p 82" fill="rgb(38,52,19)" stroke="rgb(38,52,19)" stroke-width="1" opacity="0.2823529411764706" d="M 155.5 978.0 L 163.0 978.5 L 155.5 979.0 L 155.5 978.0 Z" /><path desc="l 7 p 53" fill="rgb(62,85,30)" stroke="rgb(62,85,30)" stroke-width="1" opacity="0.4588235294117647" d="M 166.5 978.0 L 171.0 978.5 L 166.5 979.0 L 166.5 978.0 Z" /><path desc="l 6 p 22" fill="rgb(87,119,43)" stroke="rgb(87,119,43)" stroke-width="1" opacity="0.6431372549019608" d="M 171.5 978.0 L 829.0 978.5 L 171.5 979.0 L 171.5 978.0 Z" /><path desc="l 7 p 54" fill="rgb(62,85,30)" stroke="rgb(62,85,30)" stroke-width="1" opacity="0.4588235294117647" d="M 829.5 978.0 L 834.0 978.5 L 829.5 979.0 L 829.5 978.0 Z" /><path desc="l 11 p 83" fill="rgb(38,52,19)" stroke="rgb(38,52,19)" stroke-width="1" opacity="0.2823529411764706" d="M 837.5 978.0 L 845.0 978.5 L 837.5 979.0 L 837.5 978.0 Z" /><path desc="l 11 p 84" fill="rgb(38,52,19)" stroke="rgb(38,52,19)" stroke-width="1" opacity="0.2823529411764706" d="M 165.5 979.0 L 171.0 979.5 L 165.5 980.0 L 165.5 979.0 Z" /><path desc="l 12 p 7" fill="rgb(45,61,22)" stroke="rgb(45,61,22)" stroke-width="1" opacity="0.32941176470588235" d="M 171.5 979.0 L 174.0 979.5 L 171.5 980.0 L 171.5 979.0 Z" /><path desc="l 5 p 20" fill="rgb(54,74,27)" stroke="rgb(54,74,27)" stroke-width="1" opacity="0.4" d="M 174.5 979.0 L 179.0 979.5 L 174.5 980.0 L 174.5 979.0 Z" /><path desc="l 7 p 55" fill="rgb(62,85,30)" stroke="rgb(62,85,30)" stroke-width="1" opacity="0.4588235294117647" d="M 179.5 979.0 L 821.0 979.5 L 179.5 980.0 L 179.5 979.0 Z" /><path desc="l 5 p 21" fill="rgb(54,74,27)" stroke="rgb(54,74,27)" stroke-width="1" opacity="0.4" d="M 821.5 979.0 L 826.0 979.5 L 821.5 980.0 L 821.5 979.0 Z" /><path desc="l 12 p 8" fill="rgb(45,61,22)" stroke="rgb(45,61,22)" stroke-width="1" opacity="0.32941176470588235" d="M 826.5 979.0 L 829.0 979.5 L 826.5 980.0 L 826.5 979.0 Z" /><path desc="l 11 p 85" fill="rgb(38,52,19)" stroke="rgb(38,52,19)" stroke-width="1" opacity="0.2823529411764706" d="M 829.5 979.0 L 835.0 979.5 L 829.5 980.0 L 829.5 979.0 Z" /><path desc="l 11 p 86" fill="rgb(38,52,19)" stroke="rgb(38,52,19)" stroke-width="1" opacity="0.2823529411764706" d="M 177.5 980.0 L 823.0 980.5 L 177.5 981.0 L 177.5 980.0 Z" /></svg>