<svg width="1000" height="1000" version="1.1" xmlns="http://www.w3.org/2000/svg" desc="Created with ImageTracerAndroid.java version 1.1.2" ><path desc="l 15 p 0" fill="rgb(0,1,0)" stroke="rgb(0,1,0)" stroke-width="1" opacity="0.00392156862745098" d="M 0.5 0.0 L 1000.0 0.5 L 999.5 1000.0 L 0.0 999.5 L 0.5 0.0 Z" /><path desc="l 1 p 0" fill="rgb(36,49,17)" stroke="rgb(36,49,17)" stroke-width="1" opacity="0.2627450980392157" d="M 175.5 19.0 L 825.0 19.5 L 175.5 20.0 L 175.5 19.0 Z" /><path desc="l 1 p 1" fill="rgb(36,49,17)" stroke="rgb(36,49,17)" stroke-width="1" opacity="0.2627450980392157" d="M 165.5 20.0 L 173.0 20.5 L 165.5 21.0 L 165.5 20.0 Z" /><path desc="l 2 p 0" fill="rgb(61,85,30)" stroke="rgb(61,85,30)" stroke-width="1" opacity="0.4549019607843137" d="M 173.5 20.0 L 827.0 20.5 L 173.5 21.0 L 173.5 20.0 Z" /><path desc="l 1 p 2" fill="rgb(36,49,17)" stroke="rgb(36,49,17)" stroke-width="1" opacity="0.2627450980392157" d="M 827.5 20.0 L 835.0 20.5 L 827.5 21.0 L 827.5 20.0 Z" /><path desc="l 1 p 3" fill="rgb(36,49,17)" stroke="rgb(36,49,17)" stroke-width="1" opacity="0.2627450980392157" d="M 154.5 21.0 L 164.0 21.5 L 151.5 23.0 L 151.5 22.0 L 154.5 21.0 Z" /><path desc="l 2 p 1" fill="rgb(61,85,30)" stroke="rgb(61,85,30)" stroke-width="1" opacity="0.4549019607843137" d="M 164.5 21.0 L 169.0 21.5 L 164.5 22.0 L 164.5 21.0 Z" /><path desc="l 11 p 0" fill="rgb(78,107,39)" stroke="rgb(78,107,39)" stroke-width="1" opacity="0.5764705882352941" d="M 169.5 21.0 L 178.0 21.5 L 169.5 22.0 L 169.5 21.0 Z" /><path desc="l 14 p 0" fill="rgb(102,140,51)" stroke="rgb(102,140,51)" stroke-width="1" opacity="0.7568627450980392" d="M 178.5 21.0 L 822.0 21.5 L 178.5 22.0 L 178.5 21.0 Z" /><path desc="l 11 p 1" fill="rgb(78,107,39)" stroke="rgb(78,107,39)" stroke-width="1" opacity="0.5764705882352941" d="M 822.5 21.0 L 831.0 21.5 L 822.5 22.0 L 822.5 21.0 Z" /><path desc="l 2 p 2" fill="rgb(61,85,30)" stroke="rgb(61,85,30)" stroke-width="1" opacity="0.4549019607843137" d="M 831.5 21.0 L 836.0 21.5 L 831.5 22.0 L 831.5 21.0 Z" /><path desc="l 1 p 4" fill="rgb(36,49,17)" stroke="rgb(36,49,17)" stroke-width="1" opacity="0.2627450980392157" d="M 836.5 21.0 Q 844.7999877929688 19.600000381469727 849.0 22.5 L 845.5 23.0 Q 844.2999877929688 20.799999237060547 839.5 22.0 Q 835.5 22.799999237060547 836.5 21.0 Z" /><path desc="l 2 p 3" fill="rgb(61,85,30)" stroke="rgb(61,85,30)" stroke-width="1" opacity="0.4549019607843137" d="M 154.5 22.0 L 157.0 22.5 L 154.5 23.0 L 154.5 22.0 Z" /><path desc="l 11 p 2" fill="rgb(78,107,39)" stroke="rgb(78,107,39)" stroke-width="1" opacity="0.5764705882352941" d="M 157.5 22.0 L 161.0 22.5 L 157.5 23.0 L 157.5 22.0 Z" /><path desc="l 14 p 1" fill="rgb(102,140,51)" stroke="rgb(102,140,51)" stroke-width="1" opacity="0.7568627450980392" d="M 161.5 22.0 L 174.0 22.5 L 161.5 23.0 L 161.5 22.0 Z" /><path desc="l 0 p 0" fill="rgb(136,186,68)" stroke="rgb(136,186,68)" stroke-width="1" opacity="0.996078431372549" d="M 174.5 22.0 L 672.5 22.0 L 804.5 22.0 L 826.0 22.5 L 832.5 23.0 L 842.5 24.0 L 857.5 27.0 Q 881.2000122070312 31.799999237060547 898.5 43.0 Q 927.4000244140625 57.099998474121094 947.0 80.5 Q 961.7000122070312 96.80000305175781 972.0 117.5 Q 980.9000244140625 133.10000610351562 985.0 153.5 L 987.0 162.5 L 989.0 178.5 L 989.5 185.0 L 990.0 206.5 L 990.0 342.5 L 990.0 814.5 Q 987.7999877929688 815.7999877929688 989.0 820.5 L 987.0 836.5 Q 981.7999877929688 868.7999877929688 967.0 891.5 Q 951.7000122070312 917.7000122070312 929.5 937.0 Q 911.0 952.5 887.5 963.0 L 861.5 972.0 L 848.5 975.0 L 840.0 976.5 L 832.5 977.0 L 825.0 977.5 L 794.5 978.0 L 662.5 978.0 L 175.5 978.0 Q 173.8000030517578 975.2999877929688 167.5 977.0 L 160.0 976.5 L 153.5 975.0 Q 120.4000015258789 970.0999755859375 97.5 955.0 Q 71.30000305175781 941.2000122070312 53.0 919.5 Q 38.599998474121094 903.9000244140625 29.0 883.5 Q 19.200000762939453 867.7999877929688 15.0 846.5 L 13.0 837.5 L 11.0 822.5 L 10.5 816.0 L 10.0 793.5 L 10.0 658.5 L 10.0 184.5 Q 12.300000190734863 183.3000030517578 11.0 178.5 L 13.0 163.5 Q 18.600000381469727 128.60000610351562 35.5 105.0 Q 49.70000076293945 80.69999694824219 70.5 63.0 Q 86.9000015258789 49.400001525878906 107.0 39.5 Q 128.10000610351562 28.600000381469727 155.5 24.0 L 167.5 23.0 Q 173.0 24.5 174.5 22.0 Z" /><path desc="l 14 p 2" fill="rgb(102,140,51)" stroke="rgb(102,140,51)" stroke-width="1" opacity="0.7568627450980392" d="M 826.5 22.0 L 839.0 22.5 L 826.5 23.0 L 826.5 22.0 Z" /><path desc="l 11 p 3" fill="rgb(78,107,39)" stroke="rgb(78,107,39)" stroke-width="1" opacity="0.5764705882352941" d="M 839.5 22.0 L 843.0 22.5 L 839.5 23.0 L 839.5 22.0 Z" /><path desc="l 1 p 5" fill="rgb(36,49,17)" stroke="rgb(36,49,17)" stroke-width="1" opacity="0.2627450980392157" d="M 144.5 23.0 L 150.0 23.5 L 138.5 26.0 L 128.5 29.0 L 116.0 33.5 L 103.5 39.0 Q 82.4000015258789 49.400001525878906 66.0 64.5 L 65.5 66.0 L 52.0 78.5 Q 38.70000076293945 92.69999694824219 29.5 111.0 L 20.0 131.5 L 14.5 147.0 L 14.0 145.5 Q 29.5 93.4000015258789 66.5 63.0 Q 87.80000305175781 42.79999923706055 118.0 31.5 L 144.5 23.0 Z" /><path desc="l 2 p 4" fill="rgb(61,85,30)" stroke="rgb(61,85,30)" stroke-width="1" opacity="0.4549019607843137" d="M 150.5 23.0 L 153.0 23.5 L 150.5 24.0 L 150.5 23.0 Z" /><path desc="l 11 p 4" fill="rgb(78,107,39)" stroke="rgb(78,107,39)" stroke-width="1" opacity="0.5764705882352941" d="M 153.5 23.0 L 156.0 23.5 L 153.5 24.0 L 153.5 23.0 Z" /><path desc="l 14 p 3" fill="rgb(102,140,51)" stroke="rgb(102,140,51)" stroke-width="1" opacity="0.7568627450980392" d="M 156.5 23.0 L 160.0 23.5 L 156.5 24.0 L 156.5 23.0 Z" /><path desc="l 14 p 4" fill="rgb(102,140,51)" stroke="rgb(102,140,51)" stroke-width="1" opacity="0.7568627450980392" d="M 840.5 23.0 L 844.0 23.5 L 840.5 24.0 L 840.5 23.0 Z" /><path desc="l 11 p 5" fill="rgb(78,107,39)" stroke="rgb(78,107,39)" stroke-width="1" opacity="0.5764705882352941" d="M 844.5 23.0 L 847.0 23.5 L 844.5 24.0 L 844.5 23.0 Z" /><path desc="l 2 p 5" fill="rgb(61,85,30)" stroke="rgb(61,85,30)" stroke-width="1" opacity="0.4549019607843137" d="M 847.5 23.0 L 850.0 23.5 L 847.5 24.0 L 847.5 23.0 Z" /><path desc="l 1 p 6" fill="rgb(36,49,17)" stroke="rgb(36,49,17)" stroke-width="1" opacity="0.2627450980392157" d="M 850.5 23.0 L 857.5 24.0 L 870.5 27.0 Q 897.5999755859375 35.400001525878906 918.0 50.5 Q 937.2999877929688 64.69999694824219 953.0 82.5 Q 975.5 108.5 986.0 146.5 L 985.0 146.5 Q 970.2000122070312 96.30000305175781 935.5 66.0 L 934.0 65.5 L 933.5 64.0 Q 907.5 40.0 869.5 28.0 L 855.5 24.0 Q 849.5 25.299999237060547 850.5 23.0 Z" /><path desc="l 14 p 5" fill="rgb(102,140,51)" stroke="rgb(102,140,51)" stroke-width="1" opacity="0.7568627450980392" d="M 148.5 24.0 L 155.0 24.5 L 146.5 26.0 L 138.5 28.0 L 121.0 33.5 Q 79.5999984741211 49.599998474121094 53.0 80.5 Q 40.599998474121094 94.0999984741211 31.5 111.0 Q 19.0 131.5 13.5 159.0 L 13.0 156.5 Q 19.799999237060547 125.30000305175781 35.5 103.0 L 46.0 88.5 L 63.5 68.0 Q 86.69999694824219 45.20000076293945 120.5 33.0 L 131.5 29.0 L 148.5 24.0 Z" /><path desc="l 14 p 6" fill="rgb(102,140,51)" stroke="rgb(102,140,51)" stroke-width="1" opacity="0.7568627450980392" d="M 845.5 24.0 L 852.0 24.5 L 857.5 26.0 L 874.5 31.0 Q 915.9000244140625 45.599998474121094 943.0 74.5 Q 967.0999755859375 98.9000015258789 980.0 134.5 L 979.0 134.5 Q 962.5 90.5 929.5 63.0 Q 903.0 40.5 865.5 29.0 L 850.5 25.0 Q 844.5 26.299999237060547 845.5 24.0 Z" /><path desc="l 2 p 6" fill="rgb(61,85,30)" stroke="rgb(61,85,30)" stroke-width="1" opacity="0.4549019607843137" d="M 129.5 28.0 L 131.0 28.5 L 127.5 30.0 L 127.5 29.0 L 129.5 28.0 Z" /><path desc="l 2 p 7" fill="rgb(61,85,30)" stroke="rgb(61,85,30)" stroke-width="1" opacity="0.4549019607843137" d="M 118.5 32.0 L 120.0 32.5 L 116.5 34.0 L 116.5 33.0 L 118.5 32.0 Z" /><path desc="l 11 p 6" fill="rgb(78,107,39)" stroke="rgb(78,107,39)" stroke-width="1" opacity="0.5764705882352941" d="M 879.5 32.0 L 883.0 33.5 L 881.5 34.0 L 879.5 32.0 Z" /><path desc="l 2 p 8" fill="rgb(61,85,30)" stroke="rgb(61,85,30)" stroke-width="1" opacity="0.4549019607843137" d="M 885.5 34.0 L 889.0 35.5 L 887.5 36.0 L 885.5 34.0 Z" /><path desc="l 11 p 7" fill="rgb(78,107,39)" stroke="rgb(78,107,39)" stroke-width="1" opacity="0.5764705882352941" d="M 110.5 36.0 L 112.0 36.5 L 108.5 38.0 L 108.5 37.0 L 110.5 36.0 Z" /><path desc="l 11 p 8" fill="rgb(78,107,39)" stroke="rgb(78,107,39)" stroke-width="1" opacity="0.5764705882352941" d="M 889.5 36.0 L 892.0 37.5 L 890.5 38.0 L 889.5 36.0 Z" /><path desc="l 11 p 9" fill="rgb(78,107,39)" stroke="rgb(78,107,39)" stroke-width="1" opacity="0.5764705882352941" d="M 102.5 40.0 L 101.5 42.0 L 100.0 41.5 L 102.5 40.0 Z" /><path desc="l 11 p 10" fill="rgb(78,107,39)" stroke="rgb(78,107,39)" stroke-width="1" opacity="0.5764705882352941" d="M 897.5 40.0 L 903.0 43.5 L 901.5 43.0 Q 897.5 42.5 897.5 40.0 Z" /><path desc="l 2 p 9" fill="rgb(61,85,30)" stroke="rgb(61,85,30)" stroke-width="1" opacity="0.4549019607843137" d="M 97.5 42.0 L 96.5 44.0 L 97.5 42.0 Z" /><path desc="l 11 p 11" fill="rgb(78,107,39)" stroke="rgb(78,107,39)" stroke-width="1" opacity="0.5764705882352941" d="M 98.5 42.0 L 97.5 44.0 L 98.5 42.0 Z" /><path desc="l 2 p 10" fill="rgb(61,85,30)" stroke="rgb(61,85,30)" stroke-width="1" opacity="0.4549019607843137" d="M 902.5 42.0 L 906.0 44.5 L 904.5 44.0 L 902.5 42.0 Z" /><path desc="l 11 p 12" fill="rgb(78,107,39)" stroke="rgb(78,107,39)" stroke-width="1" opacity="0.5764705882352941" d="M 906.5 45.0 L 910.0 47.5 L 908.5 47.0 L 906.5 45.0 Z" /><path desc="l 2 p 11" fill="rgb(61,85,30)" stroke="rgb(61,85,30)" stroke-width="1" opacity="0.4549019607843137" d="M 90.5 46.0 L 89.5 48.0 L 90.5 46.0 Z" /><path desc="l 11 p 13" fill="rgb(78,107,39)" stroke="rgb(78,107,39)" stroke-width="1" opacity="0.5764705882352941" d="M 91.5 46.0 L 90.5 48.0 L 91.5 46.0 Z" /><path desc="l 2 p 12" fill="rgb(61,85,30)" stroke="rgb(61,85,30)" stroke-width="1" opacity="0.4549019607843137" d="M 909.5 46.0 L 910.5 48.0 L 909.5 46.0 Z" /><path desc="l 2 p 13" fill="rgb(61,85,30)" stroke="rgb(61,85,30)" stroke-width="1" opacity="0.4549019607843137" d="M 87.5 48.0 L 86.5 50.0 L 87.5 48.0 Z" /><path desc="l 11 p 14" fill="rgb(78,107,39)" stroke="rgb(78,107,39)" stroke-width="1" opacity="0.5764705882352941" d="M 88.5 48.0 L 87.5 50.0 L 88.5 48.0 Z" /><path desc="l 11 p 15" fill="rgb(78,107,39)" stroke="rgb(78,107,39)" stroke-width="1" opacity="0.5764705882352941" d="M 911.5 48.0 L 912.5 50.0 L 911.5 48.0 Z" /><path desc="l 2 p 14" fill="rgb(61,85,30)" stroke="rgb(61,85,30)" stroke-width="1" opacity="0.4549019607843137" d="M 912.5 48.0 L 913.5 50.0 L 912.5 48.0 Z" /><path desc="l 2 p 15" fill="rgb(61,85,30)" stroke="rgb(61,85,30)" stroke-width="1" opacity="0.4549019607843137" d="M 84.5 50.0 L 83.5 52.0 L 84.5 50.0 Z" /><path desc="l 11 p 16" fill="rgb(78,107,39)" stroke="rgb(78,107,39)" stroke-width="1" opacity="0.5764705882352941" d="M 85.5 50.0 L 84.5 52.0 L 85.5 50.0 Z" /><path desc="l 11 p 17" fill="rgb(78,107,39)" stroke="rgb(78,107,39)" stroke-width="1" opacity="0.5764705882352941" d="M 914.5 50.0 L 915.5 52.0 L 914.5 50.0 Z" /><path desc="l 2 p 16" fill="rgb(61,85,30)" stroke="rgb(61,85,30)" stroke-width="1" opacity="0.4549019607843137" d="M 915.5 50.0 L 916.5 52.0 L 915.5 50.0 Z" /><path desc="l 2 p 17" fill="rgb(61,85,30)" stroke="rgb(61,85,30)" stroke-width="1" opacity="0.4549019607843137" d="M 81.5 52.0 L 80.5 54.0 L 81.5 52.0 Z" /><path desc="l 11 p 18" fill="rgb(78,107,39)" stroke="rgb(78,107,39)" stroke-width="1" opacity="0.5764705882352941" d="M 82.5 52.0 L 81.5 54.0 L 82.5 52.0 Z" /><path desc="l 11 p 19" fill="rgb(78,107,39)" stroke="rgb(78,107,39)" stroke-width="1" opacity="0.5764705882352941" d="M 917.5 52.0 L 918.5 54.0 L 917.5 52.0 Z" /><path desc="l 2 p 18" fill="rgb(61,85,30)" stroke="rgb(61,85,30)" stroke-width="1" opacity="0.4549019607843137" d="M 918.5 52.0 L 919.5 54.0 L 918.5 52.0 Z" /><path desc="l 11 p 20" fill="rgb(78,107,39)" stroke="rgb(78,107,39)" stroke-width="1" opacity="0.5764705882352941" d="M 79.5 54.0 L 77.5 57.0 L 79.5 54.0 Z" /><path desc="l 11 p 21" fill="rgb(78,107,39)" stroke="rgb(78,107,39)" stroke-width="1" opacity="0.5764705882352941" d="M 920.5 54.0 L 922.5 57.0 L 920.5 54.0 Z" /><path desc="l 2 p 19" fill="rgb(61,85,30)" stroke="rgb(61,85,30)" stroke-width="1" opacity="0.4549019607843137" d="M 921.5 54.0 L 924.5 58.0 L 921.5 54.0 Z" /><path desc="l 2 p 20" fill="rgb(61,85,30)" stroke="rgb(61,85,30)" stroke-width="1" opacity="0.4549019607843137" d="M 77.5 55.0 L 75.5 58.0 L 77.5 55.0 Z" /><path desc="l 2 p 21" fill="rgb(61,85,30)" stroke="rgb(61,85,30)" stroke-width="1" opacity="0.4549019607843137" d="M 73.5 58.0 L 70.5 62.0 L 73.5 58.0 Z" /><path desc="l 11 p 22" fill="rgb(78,107,39)" stroke="rgb(78,107,39)" stroke-width="1" opacity="0.5764705882352941" d="M 74.5 58.0 L 72.5 61.0 L 74.5 58.0 Z" /><path desc="l 11 p 23" fill="rgb(78,107,39)" stroke="rgb(78,107,39)" stroke-width="1" opacity="0.5764705882352941" d="M 925.5 58.0 L 927.5 61.0 L 925.5 58.0 Z" /><path desc="l 2 p 22" fill="rgb(61,85,30)" stroke="rgb(61,85,30)" stroke-width="1" opacity="0.4549019607843137" d="M 927.5 59.0 L 929.5 62.0 L 927.5 59.0 Z" /><path desc="l 11 p 24" fill="rgb(78,107,39)" stroke="rgb(78,107,39)" stroke-width="1" opacity="0.5764705882352941" d="M 69.5 62.0 L 64.5 68.0 L 69.5 62.0 Z" /><path desc="l 11 p 25" fill="rgb(78,107,39)" stroke="rgb(78,107,39)" stroke-width="1" opacity="0.5764705882352941" d="M 930.5 62.0 L 935.5 68.0 L 930.5 62.0 Z" /><path desc="l 2 p 23" fill="rgb(61,85,30)" stroke="rgb(61,85,30)" stroke-width="1" opacity="0.4549019607843137" d="M 64.5 66.0 L 52.5 79.0 L 64.5 66.0 Z" /><path desc="l 2 p 24" fill="rgb(61,85,30)" stroke="rgb(61,85,30)" stroke-width="1" opacity="0.4549019607843137" d="M 935.5 66.0 L 947.5 79.0 L 935.5 66.0 Z" /><path desc="l 11 p 26" fill="rgb(78,107,39)" stroke="rgb(78,107,39)" stroke-width="1" opacity="0.5764705882352941" d="M 56.5 75.0 L 50.5 82.0 L 56.5 75.0 Z" /><path desc="l 11 p 27" fill="rgb(78,107,39)" stroke="rgb(78,107,39)" stroke-width="1" opacity="0.5764705882352941" d="M 943.5 75.0 L 949.5 82.0 L 943.5 75.0 Z" /><path desc="l 2 p 25" fill="rgb(61,85,30)" stroke="rgb(61,85,30)" stroke-width="1" opacity="0.4549019607843137" d="M 49.5 82.0 L 46.5 86.0 L 49.5 82.0 Z" /><path desc="l 2 p 26" fill="rgb(61,85,30)" stroke="rgb(61,85,30)" stroke-width="1" opacity="0.4549019607843137" d="M 950.5 82.0 L 953.5 86.0 L 950.5 82.0 Z" /><path desc="l 11 p 28" fill="rgb(78,107,39)" stroke="rgb(78,107,39)" stroke-width="1" opacity="0.5764705882352941" d="M 49.5 83.0 L 46.5 87.0 L 49.5 83.0 Z" /><path desc="l 11 p 29" fill="rgb(78,107,39)" stroke="rgb(78,107,39)" stroke-width="1" opacity="0.5764705882352941" d="M 950.5 83.0 L 953.5 87.0 L 950.5 83.0 Z" /><path desc="l 2 p 27" fill="rgb(61,85,30)" stroke="rgb(61,85,30)" stroke-width="1" opacity="0.4549019607843137" d="M 45.5 87.0 L 42.5 91.0 L 45.5 87.0 Z" /><path desc="l 2 p 28" fill="rgb(61,85,30)" stroke="rgb(61,85,30)" stroke-width="1" opacity="0.4549019607843137" d="M 954.5 87.0 L 957.5 91.0 L 954.5 87.0 Z" /><path desc="l 11 p 30" fill="rgb(78,107,39)" stroke="rgb(78,107,39)" stroke-width="1" opacity="0.5764705882352941" d="M 45.5 88.0 L 42.5 92.0 L 45.5 88.0 Z" /><path desc="l 11 p 31" fill="rgb(78,107,39)" stroke="rgb(78,107,39)" stroke-width="1" opacity="0.5764705882352941" d="M 954.5 88.0 L 957.5 92.0 L 954.5 88.0 Z" /><path desc="l 2 p 29" fill="rgb(61,85,30)" stroke="rgb(61,85,30)" stroke-width="1" opacity="0.4549019607843137" d="M 41.5 92.0 L 40.5 94.0 L 41.5 92.0 Z" /><path desc="l 2 p 30" fill="rgb(61,85,30)" stroke="rgb(61,85,30)" stroke-width="1" opacity="0.4549019607843137" d="M 958.5 92.0 L 959.5 94.0 L 958.5 92.0 Z" /><path desc="l 11 p 32" fill="rgb(78,107,39)" stroke="rgb(78,107,39)" stroke-width="1" opacity="0.5764705882352941" d="M 41.5 93.0 L 40.5 95.0 L 41.5 93.0 Z" /><path desc="l 11 p 33" fill="rgb(78,107,39)" stroke="rgb(78,107,39)" stroke-width="1" opacity="0.5764705882352941" d="M 958.5 93.0 L 959.5 95.0 L 958.5 93.0 Z" /><path desc="l 2 p 31" fill="rgb(61,85,30)" stroke="rgb(61,85,30)" stroke-width="1" opacity="0.4549019607843137" d="M 39.5 95.0 L 38.5 97.0 L 39.5 95.0 Z" /><path desc="l 2 p 32" fill="rgb(61,85,30)" stroke="rgb(61,85,30)" stroke-width="1" opacity="0.4549019607843137" d="M 960.5 95.0 L 961.5 97.0 L 960.5 95.0 Z" /><path desc="l 11 p 34" fill="rgb(78,107,39)" stroke="rgb(78,107,39)" stroke-width="1" opacity="0.5764705882352941" d="M 39.5 96.0 L 38.5 98.0 L 39.5 96.0 Z" /><path desc="l 11 p 35" fill="rgb(78,107,39)" stroke="rgb(78,107,39)" stroke-width="1" opacity="0.5764705882352941" d="M 960.5 96.0 L 961.5 98.0 L 960.5 96.0 Z" /><path desc="l 2 p 33" fill="rgb(61,85,30)" stroke="rgb(61,85,30)" stroke-width="1" opacity="0.4549019607843137" d="M 37.5 98.0 L 36.5 100.0 L 37.5 98.0 Z" /><path desc="l 2 p 34" fill="rgb(61,85,30)" stroke="rgb(61,85,30)" stroke-width="1" opacity="0.4549019607843137" d="M 962.5 98.0 L 963.5 100.0 L 962.5 98.0 Z" /><path desc="l 11 p 36" fill="rgb(78,107,39)" stroke="rgb(78,107,39)" stroke-width="1" opacity="0.5764705882352941" d="M 37.5 99.0 L 36.5 101.0 L 37.5 99.0 Z" /><path desc="l 11 p 37" fill="rgb(78,107,39)" stroke="rgb(78,107,39)" stroke-width="1" opacity="0.5764705882352941" d="M 962.5 99.0 L 963.5 101.0 L 962.5 99.0 Z" /><path desc="l 2 p 35" fill="rgb(61,85,30)" stroke="rgb(61,85,30)" stroke-width="1" opacity="0.4549019607843137" d="M 35.5 101.0 L 34.5 103.0 L 35.5 101.0 Z" /><path desc="l 2 p 36" fill="rgb(61,85,30)" stroke="rgb(61,85,30)" stroke-width="1" opacity="0.4549019607843137" d="M 964.5 101.0 L 965.5 103.0 L 964.5 101.0 Z" /><path desc="l 11 p 38" fill="rgb(78,107,39)" stroke="rgb(78,107,39)" stroke-width="1" opacity="0.5764705882352941" d="M 35.5 102.0 L 34.5 104.0 L 35.5 102.0 Z" /><path desc="l 11 p 39" fill="rgb(78,107,39)" stroke="rgb(78,107,39)" stroke-width="1" opacity="0.5764705882352941" d="M 964.5 102.0 L 965.5 104.0 L 964.5 102.0 Z" /><path desc="l 2 p 37" fill="rgb(61,85,30)" stroke="rgb(61,85,30)" stroke-width="1" opacity="0.4549019607843137" d="M 32.5 106.0 L 32.0 107.5 L 30.5 110.0 L 31.0 108.5 L 32.5 106.0 Z" /><path desc="l 2 p 38" fill="rgb(61,85,30)" stroke="rgb(61,85,30)" stroke-width="1" opacity="0.4549019607843137" d="M 967.5 106.0 L 970.0 109.5 L 968.0 108.5 L 967.5 106.0 Z" /><path desc="l 11 p 40" fill="rgb(78,107,39)" stroke="rgb(78,107,39)" stroke-width="1" opacity="0.5764705882352941" d="M 31.5 109.0 L 30.5 111.0 L 31.5 109.0 Z" /><path desc="l 11 p 41" fill="rgb(78,107,39)" stroke="rgb(78,107,39)" stroke-width="1" opacity="0.5764705882352941" d="M 968.5 109.0 L 969.5 111.0 L 968.5 109.0 Z" /><path desc="l 2 p 39" fill="rgb(61,85,30)" stroke="rgb(61,85,30)" stroke-width="1" opacity="0.4549019607843137" d="M 27.5 115.0 L 26.5 117.0 L 27.5 115.0 Z" /><path desc="l 11 p 42" fill="rgb(78,107,39)" stroke="rgb(78,107,39)" stroke-width="1" opacity="0.5764705882352941" d="M 27.5 116.0 L 26.5 118.0 L 27.5 116.0 Z" /><path desc="l 11 p 43" fill="rgb(78,107,39)" stroke="rgb(78,107,39)" stroke-width="1" opacity="0.5764705882352941" d="M 980.5 134.0 L 982.0 137.5 L 981.0 137.5 L 980.5 134.0 Z" /><path desc="l 14 p 7" fill="rgb(102,140,51)" stroke="rgb(102,140,51)" stroke-width="1" opacity="0.7568627450980392" d="M 980.5 136.0 Q 985.4000244140625 145.60000610351562 987.0 158.5 L 986.0 158.5 L 980.5 136.0 Z" /><path desc="l 2 p 40" fill="rgb(61,85,30)" stroke="rgb(61,85,30)" stroke-width="1" opacity="0.4549019607843137" d="M 984.5 145.0 L 986.0 148.5 L 985.0 148.5 L 984.5 145.0 Z" /><path desc="l 1 p 7" fill="rgb(36,49,17)" stroke="rgb(36,49,17)" stroke-width="1" opacity="0.2627450980392157" d="M 13.5 148.0 L 14.0 151.5 L 10.5 164.0 L 10.0 160.5 L 13.5 148.0 Z" /><path desc="l 1 p 8" fill="rgb(36,49,17)" stroke="rgb(36,49,17)" stroke-width="1" opacity="0.2627450980392157" d="M 986.5 148.0 L 988.0 154.5 L 987.0 154.5 L 986.5 148.0 Z" /><path desc="l 1 p 9" fill="rgb(36,49,17)" stroke="rgb(36,49,17)" stroke-width="1" opacity="0.2627450980392157" d="M 988.5 156.0 L 991.0 168.5 L 992.0 179.5 L 991.0 179.5 L 989.0 163.5 L 988.5 156.0 Z" /><path desc="l 11 p 44" fill="rgb(78,107,39)" stroke="rgb(78,107,39)" stroke-width="1" opacity="0.5764705882352941" d="M 12.5 157.0 L 13.0 159.5 L 12.0 159.5 L 12.5 157.0 Z" /><path desc="l 11 p 45" fill="rgb(78,107,39)" stroke="rgb(78,107,39)" stroke-width="1" opacity="0.5764705882352941" d="M 987.5 157.0 L 988.0 159.5 L 987.0 159.5 L 987.5 157.0 Z" /><path desc="l 14 p 8" fill="rgb(102,140,51)" stroke="rgb(102,140,51)" stroke-width="1" opacity="0.7568627450980392" d="M 12.5 160.0 L 13.0 165.5 L 11.5 172.0 L 11.0 177.5 L 10.0 193.5 L 10.0 223.5 L 10.0 341.5 L 10.0 815.5 Q 12.300000190734863 816.7999877929688 11.0 821.5 L 13.0 839.5 L 12.0 839.5 L 9.5 817.0 L 9.0 777.5 L 9.0 658.5 L 9.0 183.5 Q 11.300000190734863 182.3000030517578 10.0 177.5 L 12.5 160.0 Z" /><path desc="l 14 p 9" fill="rgb(102,140,51)" stroke="rgb(102,140,51)" stroke-width="1" opacity="0.7568627450980392" d="M 987.5 160.0 L 989.5 172.0 L 990.5 183.0 L 991.0 222.5 L 991.0 341.5 L 991.0 816.5 L 990.0 820.5 Q 991.7999877929688 826.7999877929688 989.0 828.5 L 988.5 834.0 L 986.0 846.5 L 980.5 864.0 L 980.0 862.5 L 985.0 846.5 L 987.0 836.5 L 989.0 821.5 L 990.0 805.5 L 990.0 775.5 L 990.0 657.5 L 990.0 185.5 L 989.0 180.5 L 988.0 170.5 L 987.5 160.0 Z" /><path desc="l 11 p 46" fill="rgb(78,107,39)" stroke="rgb(78,107,39)" stroke-width="1" opacity="0.5764705882352941" d="M 11.5 163.0 L 12.0 165.5 L 11.0 165.5 L 11.5 163.0 Z" /><path desc="l 11 p 47" fill="rgb(78,107,39)" stroke="rgb(78,107,39)" stroke-width="1" opacity="0.5764705882352941" d="M 988.5 163.0 L 989.0 165.5 L 988.0 165.5 L 988.5 163.0 Z" /><path desc="l 2 p 41" fill="rgb(61,85,30)" stroke="rgb(61,85,30)" stroke-width="1" opacity="0.4549019607843137" d="M 10.5 164.0 L 11.0 166.5 L 10.0 166.5 L 10.5 164.0 Z" /><path desc="l 1 p 10" fill="rgb(36,49,17)" stroke="rgb(36,49,17)" stroke-width="1" opacity="0.2627450980392157" d="M 9.5 165.0 L 10.0 172.5 L 8.5 180.0 L 8.0 172.5 L 9.5 165.0 Z" /><path desc="l 2 p 42" fill="rgb(61,85,30)" stroke="rgb(61,85,30)" stroke-width="1" opacity="0.4549019607843137" d="M 989.5 165.0 L 990.0 167.5 L 989.0 167.5 L 989.5 165.0 Z" /><path desc="l 11 p 48" fill="rgb(78,107,39)" stroke="rgb(78,107,39)" stroke-width="1" opacity="0.5764705882352941" d="M 10.5 167.0 L 11.0 171.5 L 10.0 171.5 L 10.5 167.0 Z" /><path desc="l 11 p 49" fill="rgb(78,107,39)" stroke="rgb(78,107,39)" stroke-width="1" opacity="0.5764705882352941" d="M 989.5 168.0 L 990.0 171.5 L 989.0 171.5 L 989.5 168.0 Z" /><path desc="l 2 p 43" fill="rgb(61,85,30)" stroke="rgb(61,85,30)" stroke-width="1" opacity="0.4549019607843137" d="M 9.5 173.0 L 10.0 176.5 L 9.0 176.5 L 9.5 173.0 Z" /><path desc="l 2 p 44" fill="rgb(61,85,30)" stroke="rgb(61,85,30)" stroke-width="1" opacity="0.4549019607843137" d="M 990.5 173.0 L 991.0 176.5 L 990.0 176.5 L 990.5 173.0 Z" /><path desc="l 11 p 50" fill="rgb(78,107,39)" stroke="rgb(78,107,39)" stroke-width="1" opacity="0.5764705882352941" d="M 9.5 177.0 L 10.0 182.5 L 9.0 182.5 L 9.5 177.0 Z" /><path desc="l 11 p 51" fill="rgb(78,107,39)" stroke="rgb(78,107,39)" stroke-width="1" opacity="0.5764705882352941" d="M 990.5 177.0 L 991.0 182.5 L 990.0 182.5 L 990.5 177.0 Z" /><path desc="l 2 p 45" fill="rgb(61,85,30)" stroke="rgb(61,85,30)" stroke-width="1" opacity="0.4549019607843137" d="M 8.5 180.0 L 9.0 187.5 L 8.0 187.5 L 8.5 180.0 Z" /><path desc="l 2 p 46" fill="rgb(61,85,30)" stroke="rgb(61,85,30)" stroke-width="1" opacity="0.4549019607843137" d="M 991.5 180.0 L 992.0 188.5 L 991.0 188.5 L 991.5 180.0 Z" /><path desc="l 1 p 11" fill="rgb(36,49,17)" stroke="rgb(36,49,17)" stroke-width="1" opacity="0.2627450980392157" d="M 7.5 181.0 L 8.0 817.5 L 7.0 817.5 L 7.5 181.0 Z" /><path desc="l 1 p 12" fill="rgb(36,49,17)" stroke="rgb(36,49,17)" stroke-width="1" opacity="0.2627450980392157" d="M 992.5 182.0 L 993.0 817.5 L 992.0 817.5 L 992.5 182.0 Z" /><path desc="l 11 p 52" fill="rgb(78,107,39)" stroke="rgb(78,107,39)" stroke-width="1" opacity="0.5764705882352941" d="M 8.5 188.0 L 9.0 811.5 L 8.0 811.5 L 8.5 188.0 Z" /><path desc="l 11 p 53" fill="rgb(78,107,39)" stroke="rgb(78,107,39)" stroke-width="1" opacity="0.5764705882352941" d="M 991.5 189.0 L 992.0 810.5 L 991.0 810.5 L 991.5 189.0 Z" /><path desc="l 6 p 0" fill="rgb(248,249,244)" stroke="rgb(248,249,244)" stroke-width="1" opacity="1.0" d="M 335.5 264.0 L 362.5 264.0 L 379.5 265.0 L 392.5 266.0 L 409.5 268.0 Q 463.6000061035156 276.3999938964844 496.0 306.5 L 496.5 308.0 L 504.0 314.5 L 504.5 316.0 L 506.0 316.5 Q 518.5999755859375 330.3999938964844 526.5 349.0 Q 533.2000122070312 362.29998779296875 536.0 379.5 L 537.5 387.0 L 538.5 397.0 L 539.0 425.5 Q 536.7999877929688 426.79998779296875 538.0 431.5 L 537.0 442.5 L 534.0 457.5 L 527.0 475.5 Q 524.2999877929688 485.29998779296875 518.5 492.0 Q 509.0 508.0 495.5 520.0 Q 483.0 532.0 466.5 540.0 L 456.5 545.0 L 439.5 551.0 L 415.5 557.0 L 394.5 560.0 L 377.0 561.5 L 333.5 562.0 L 329.5 561.0 L 320.5 561.0 Q 317.5 562.5 319.0 568.5 L 319.0 585.5 L 319.0 657.5 L 319.0 682.5 Q 320.6000061035156 693.5999755859375 315.5 698.0 L 253.5 698.0 L 237.5 698.0 Q 231.3000030517578 699.2999877929688 230.0 695.5 L 230.0 376.5 L 230.0 296.5 L 230.0 276.5 Q 228.3000030517578 268.79998779296875 232.5 267.0 L 278.5 266.0 L 319.5 265.0 L 330.5 265.0 L 335.5 264.0 Z" /><path desc="l 0 p 1" fill="rgb(136,186,68)" stroke="rgb(136,186,68)" stroke-width="1" opacity="0.996078431372549" d="M 341.5 345.0 L 385.5 346.0 L 402.5 350.0 Q 418.79998779296875 354.79998779296875 430.0 364.5 L 430.5 366.0 L 434.0 368.5 L 444.5 385.0 L 449.0 399.5 L 450.0 407.5 L 450.0 423.5 L 446.5 438.0 Q 441.0 455.5 427.5 465.0 Q 414.0 476.0 393.5 480.0 L 381.0 482.5 L 368.5 484.0 L 321.5 484.0 Q 317.0 482.0 319.0 473.5 L 319.0 448.5 L 319.0 347.5 Q 320.5 344.5 326.5 346.0 L 336.5 346.0 L 341.5 345.0 Z" /><path desc="l 6 p 1" fill="rgb(248,249,244)" stroke="rgb(248,249,244)" stroke-width="1" opacity="1.0" d="M 698.5 366.0 L 732.0 366.5 L 748.5 368.0 L 757.5 369.0 L 764.5 370.0 L 769.5 371.0 Q 788.4000244140625 373.1000061035156 802.0 380.5 Q 804.7999877929688 382.20001220703125 804.0 387.5 L 804.0 401.5 L 804.0 456.5 Q 802.0 460.0 795.5 459.0 Q 785.2999877929688 452.20001220703125 771.5 449.0 L 756.5 445.0 L 741.5 442.0 L 734.5 441.0 L 721.5 440.0 L 703.5 439.0 L 686.5 442.0 Q 677.2999877929688 443.29998779296875 673.0 449.5 Q 669.0 454.5 669.0 463.5 Q 671.2999877929688 471.29998779296875 676.5 476.0 Q 683.4000244140625 482.6000061035156 693.5 486.0 L 712.5 495.0 L 740.5 506.0 L 774.0 523.5 Q 788.0 530.5 798.0 541.5 Q 808.5999755859375 551.4000244140625 814.0 566.5 Q 819.0 574.5 820.0 586.5 L 821.0 596.5 L 821.0 613.5 L 816.0 635.5 Q 806.7999877929688 662.2999877929688 786.5 678.0 Q 775.7999877929688 687.2999877929688 761.5 693.0 L 741.5 700.0 L 722.5 704.0 L 713.0 705.5 L 698.0 706.5 L 671.5 707.0 Q 669.7999877929688 704.2999877929688 663.5 706.0 L 655.0 705.5 L 644.5 704.0 L 627.5 701.0 L 617.5 699.0 L 604.5 695.0 L 596.5 692.0 L 589.5 689.0 L 584.0 685.5 L 583.0 678.5 L 583.0 664.5 L 583.0 608.5 L 584.5 606.0 L 589.5 607.0 L 595.5 610.0 L 605.5 615.0 L 619.5 620.0 L 635.5 625.0 L 648.5 628.0 L 658.5 630.0 L 671.0 631.5 L 701.5 632.0 L 713.5 629.0 Q 724.7999877929688 627.2999877929688 730.0 619.5 Q 733.7999877929688 614.7999877929688 732.0 604.5 Q 728.2999877929688 595.7000122070312 720.5 591.0 Q 697.5 577.5 669.5 569.0 L 655.5 562.0 L 637.5 552.0 Q 617.0999755859375 542.4000244140625 604.0 525.5 L 596.0 514.5 L 590.0 500.5 L 587.0 493.5 L 585.0 483.5 L 584.0 474.5 L 584.0 456.5 Q 590.9000244140625 415.8999938964844 617.5 395.0 Q 628.5999755859375 385.1000061035156 643.5 379.0 Q 653.5999755859375 373.1000061035156 667.5 371.0 L 683.5 368.0 L 693.5 367.0 L 698.5 366.0 Z" /><path desc="l 2 p 47" fill="rgb(61,85,30)" stroke="rgb(61,85,30)" stroke-width="1" opacity="0.4549019607843137" d="M 991.5 811.0 L 992.0 819.5 L 991.0 819.5 L 991.5 811.0 Z" /><path desc="l 2 p 48" fill="rgb(61,85,30)" stroke="rgb(61,85,30)" stroke-width="1" opacity="0.4549019607843137" d="M 8.5 812.0 L 9.0 819.5 L 8.0 819.5 L 8.5 812.0 Z" /><path desc="l 11 p 54" fill="rgb(78,107,39)" stroke="rgb(78,107,39)" stroke-width="1" opacity="0.5764705882352941" d="M 9.5 817.0 L 10.0 822.5 L 9.0 822.5 L 9.5 817.0 Z" /><path desc="l 11 p 55" fill="rgb(78,107,39)" stroke="rgb(78,107,39)" stroke-width="1" opacity="0.5764705882352941" d="M 990.5 817.0 L 991.0 822.5 L 990.0 822.5 L 990.5 817.0 Z" /><path desc="l 1 p 13" fill="rgb(36,49,17)" stroke="rgb(36,49,17)" stroke-width="1" opacity="0.2627450980392157" d="M 8.5 820.0 L 11.0 836.5 L 14.0 851.5 L 13.0 851.5 L 10.0 837.5 L 8.5 828.0 L 8.5 820.0 Z" /><path desc="l 1 p 14" fill="rgb(36,49,17)" stroke="rgb(36,49,17)" stroke-width="1" opacity="0.2627450980392157" d="M 991.5 820.0 L 992.0 826.5 L 988.5 844.0 L 988.0 839.5 L 990.0 831.5 L 991.5 820.0 Z" /><path desc="l 2 p 49" fill="rgb(61,85,30)" stroke="rgb(61,85,30)" stroke-width="1" opacity="0.4549019607843137" d="M 9.5 823.0 L 10.0 826.5 L 9.0 826.5 L 9.5 823.0 Z" /><path desc="l 2 p 50" fill="rgb(61,85,30)" stroke="rgb(61,85,30)" stroke-width="1" opacity="0.4549019607843137" d="M 990.5 823.0 L 991.0 826.5 L 990.0 826.5 L 990.5 823.0 Z" /><path desc="l 11 p 56" fill="rgb(78,107,39)" stroke="rgb(78,107,39)" stroke-width="1" opacity="0.5764705882352941" d="M 10.5 828.0 L 11.0 832.5 L 10.0 832.5 L 10.5 828.0 Z" /><path desc="l 11 p 57" fill="rgb(78,107,39)" stroke="rgb(78,107,39)" stroke-width="1" opacity="0.5764705882352941" d="M 989.5 828.0 L 990.0 831.5 L 989.0 831.5 L 989.5 828.0 Z" /><path desc="l 2 p 51" fill="rgb(61,85,30)" stroke="rgb(61,85,30)" stroke-width="1" opacity="0.4549019607843137" d="M 989.5 832.0 L 990.0 834.5 L 989.0 834.5 L 989.5 832.0 Z" /><path desc="l 11 p 58" fill="rgb(78,107,39)" stroke="rgb(78,107,39)" stroke-width="1" opacity="0.5764705882352941" d="M 11.5 834.0 L 12.0 836.5 L 11.0 836.5 L 11.5 834.0 Z" /><path desc="l 11 p 59" fill="rgb(78,107,39)" stroke="rgb(78,107,39)" stroke-width="1" opacity="0.5764705882352941" d="M 988.5 834.0 L 989.0 836.5 L 988.0 836.5 L 988.5 834.0 Z" /><path desc="l 11 p 60" fill="rgb(78,107,39)" stroke="rgb(78,107,39)" stroke-width="1" opacity="0.5764705882352941" d="M 12.5 840.0 L 13.0 842.5 L 12.0 842.5 L 12.5 840.0 Z" /><path desc="l 11 p 61" fill="rgb(78,107,39)" stroke="rgb(78,107,39)" stroke-width="1" opacity="0.5764705882352941" d="M 987.5 840.0 L 988.0 842.5 L 987.0 842.5 L 987.5 840.0 Z" /><path desc="l 14 p 10" fill="rgb(102,140,51)" stroke="rgb(102,140,51)" stroke-width="1" opacity="0.7568627450980392" d="M 13.5 841.0 Q 20.299999237060547 875.2999877929688 38.0 898.5 Q 51.29999923706055 920.7000122070312 70.5 937.0 L 85.0 947.5 L 105.5 959.0 Q 115.30000305175781 965.7000122070312 128.5 969.0 L 146.5 974.0 L 155.0 975.5 L 148.5 976.0 L 123.5 968.0 Q 83.9000015258789 954.0999755859375 58.0 926.5 Q 44.79999923706055 913.7000122070312 35.5 897.0 Q 18.399999618530273 873.9000244140625 13.5 841.0 Z" /><path desc="l 1 p 15" fill="rgb(36,49,17)" stroke="rgb(36,49,17)" stroke-width="1" opacity="0.2627450980392157" d="M 987.5 845.0 L 988.0 847.5 L 986.5 852.0 L 986.0 848.5 L 987.5 845.0 Z" /><path desc="l 2 p 52" fill="rgb(61,85,30)" stroke="rgb(61,85,30)" stroke-width="1" opacity="0.4549019607843137" d="M 985.5 851.0 L 986.0 852.5 L 984.5 855.0 L 984.0 853.5 L 985.5 851.0 Z" /><path desc="l 1 p 16" fill="rgb(36,49,17)" stroke="rgb(36,49,17)" stroke-width="1" opacity="0.2627450980392157" d="M 14.5 853.0 Q 29.600000381469727 903.4000244140625 64.5 934.0 L 66.0 934.5 L 66.5 936.0 Q 82.4000015258789 950.5999755859375 103.0 960.5 L 127.0 970.5 L 138.5 974.0 L 147.5 976.0 L 164.0 978.5 L 155.5 979.0 L 143.5 976.0 L 138.5 975.0 L 132.5 973.0 Q 102.80000305175781 965.7000122070312 82.5 949.0 Q 62.400001525878906 935.5999755859375 47.0 917.5 Q 23.899999618530273 891.0999755859375 14.5 853.0 Z" /><path desc="l 1 p 17" fill="rgb(36,49,17)" stroke="rgb(36,49,17)" stroke-width="1" opacity="0.2627450980392157" d="M 985.5 853.0 L 986.0 854.5 Q 970.2999877929688 906.2999877929688 933.5 937.0 Q 917.7000122070312 951.7000122070312 897.5 962.0 Q 884.5999755859375 969.0999755859375 868.5 973.0 L 852.5 977.0 L 847.5 978.0 L 836.5 979.0 L 836.5 978.0 Q 843.2999877929688 979.2999877929688 846.5 977.0 L 857.5 975.0 L 867.0 972.5 Q 907.0999755859375 960.5999755859375 934.0 935.5 L 934.5 934.0 L 948.0 921.5 Q 973.4000244140625 893.9000244140625 985.5 853.0 Z" /><path desc="l 11 p 62" fill="rgb(78,107,39)" stroke="rgb(78,107,39)" stroke-width="1" opacity="0.5764705882352941" d="M 981.5 862.0 L 982.0 863.5 L 980.5 866.0 L 980.0 864.5 L 981.5 862.0 Z" /><path desc="l 14 p 11" fill="rgb(102,140,51)" stroke="rgb(102,140,51)" stroke-width="1" opacity="0.7568627450980392" d="M 979.5 865.0 L 980.0 867.5 Q 964.2999877929688 905.7999877929688 936.5 932.0 Q 910.7000122070312 956.7000122070312 873.0 969.5 L 857.5 974.0 L 853.5 975.0 L 845.5 976.0 L 845.5 975.0 L 853.5 974.0 L 861.5 972.0 L 879.0 966.5 Q 920.2000122070312 950.2000122070312 947.0 919.5 Q 967.9000244140625 896.9000244140625 979.5 865.0 Z" /><path desc="l 11 p 63" fill="rgb(78,107,39)" stroke="rgb(78,107,39)" stroke-width="1" opacity="0.5764705882352941" d="M 30.5 889.0 L 31.5 891.0 L 30.5 889.0 Z" /><path desc="l 11 p 64" fill="rgb(78,107,39)" stroke="rgb(78,107,39)" stroke-width="1" opacity="0.5764705882352941" d="M 969.5 889.0 L 968.5 891.0 L 969.5 889.0 Z" /><path desc="l 2 p 53" fill="rgb(61,85,30)" stroke="rgb(61,85,30)" stroke-width="1" opacity="0.4549019607843137" d="M 30.5 890.0 L 33.0 893.5 L 31.0 892.5 L 30.5 890.0 Z" /><path desc="l 2 p 54" fill="rgb(61,85,30)" stroke="rgb(61,85,30)" stroke-width="1" opacity="0.4549019607843137" d="M 969.5 890.0 L 969.0 891.5 L 967.5 894.0 L 968.0 892.5 L 969.5 890.0 Z" /><path desc="l 11 p 65" fill="rgb(78,107,39)" stroke="rgb(78,107,39)" stroke-width="1" opacity="0.5764705882352941" d="M 34.5 896.0 L 35.5 898.0 L 34.5 896.0 Z" /><path desc="l 11 p 66" fill="rgb(78,107,39)" stroke="rgb(78,107,39)" stroke-width="1" opacity="0.5764705882352941" d="M 965.5 896.0 L 964.5 898.0 L 965.5 896.0 Z" /><path desc="l 2 p 55" fill="rgb(61,85,30)" stroke="rgb(61,85,30)" stroke-width="1" opacity="0.4549019607843137" d="M 34.5 897.0 L 35.5 899.0 L 34.5 897.0 Z" /><path desc="l 2 p 56" fill="rgb(61,85,30)" stroke="rgb(61,85,30)" stroke-width="1" opacity="0.4549019607843137" d="M 965.5 897.0 L 964.5 899.0 L 965.5 897.0 Z" /><path desc="l 11 p 67" fill="rgb(78,107,39)" stroke="rgb(78,107,39)" stroke-width="1" opacity="0.5764705882352941" d="M 36.5 899.0 L 37.5 901.0 L 36.5 899.0 Z" /><path desc="l 11 p 68" fill="rgb(78,107,39)" stroke="rgb(78,107,39)" stroke-width="1" opacity="0.5764705882352941" d="M 963.5 899.0 L 962.5 901.0 L 963.5 899.0 Z" /><path desc="l 2 p 57" fill="rgb(61,85,30)" stroke="rgb(61,85,30)" stroke-width="1" opacity="0.4549019607843137" d="M 36.5 900.0 L 37.5 902.0 L 36.5 900.0 Z" /><path desc="l 2 p 58" fill="rgb(61,85,30)" stroke="rgb(61,85,30)" stroke-width="1" opacity="0.4549019607843137" d="M 963.5 900.0 L 962.5 902.0 L 963.5 900.0 Z" /><path desc="l 11 p 69" fill="rgb(78,107,39)" stroke="rgb(78,107,39)" stroke-width="1" opacity="0.5764705882352941" d="M 38.5 902.0 L 39.5 904.0 L 38.5 902.0 Z" /><path desc="l 11 p 70" fill="rgb(78,107,39)" stroke="rgb(78,107,39)" stroke-width="1" opacity="0.5764705882352941" d="M 961.5 902.0 L 960.5 904.0 L 961.5 902.0 Z" /><path desc="l 2 p 59" fill="rgb(61,85,30)" stroke="rgb(61,85,30)" stroke-width="1" opacity="0.4549019607843137" d="M 38.5 903.0 L 39.5 905.0 L 38.5 903.0 Z" /><path desc="l 2 p 60" fill="rgb(61,85,30)" stroke="rgb(61,85,30)" stroke-width="1" opacity="0.4549019607843137" d="M 961.5 903.0 L 960.5 905.0 L 961.5 903.0 Z" /><path desc="l 11 p 71" fill="rgb(78,107,39)" stroke="rgb(78,107,39)" stroke-width="1" opacity="0.5764705882352941" d="M 40.5 905.0 L 41.5 907.0 L 40.5 905.0 Z" /><path desc="l 11 p 72" fill="rgb(78,107,39)" stroke="rgb(78,107,39)" stroke-width="1" opacity="0.5764705882352941" d="M 959.5 905.0 L 958.5 907.0 L 959.5 905.0 Z" /><path desc="l 2 p 61" fill="rgb(61,85,30)" stroke="rgb(61,85,30)" stroke-width="1" opacity="0.4549019607843137" d="M 40.5 906.0 L 41.5 908.0 L 40.5 906.0 Z" /><path desc="l 2 p 62" fill="rgb(61,85,30)" stroke="rgb(61,85,30)" stroke-width="1" opacity="0.4549019607843137" d="M 959.5 906.0 L 957.5 909.0 L 959.5 906.0 Z" /><path desc="l 11 p 73" fill="rgb(78,107,39)" stroke="rgb(78,107,39)" stroke-width="1" opacity="0.5764705882352941" d="M 42.5 908.0 L 45.5 912.0 L 42.5 908.0 Z" /><path desc="l 2 p 63" fill="rgb(61,85,30)" stroke="rgb(61,85,30)" stroke-width="1" opacity="0.4549019607843137" d="M 42.5 909.0 L 45.5 913.0 L 42.5 909.0 Z" /><path desc="l 11 p 74" fill="rgb(78,107,39)" stroke="rgb(78,107,39)" stroke-width="1" opacity="0.5764705882352941" d="M 956.5 909.0 L 954.5 912.0 L 956.5 909.0 Z" /><path desc="l 2 p 64" fill="rgb(61,85,30)" stroke="rgb(61,85,30)" stroke-width="1" opacity="0.4549019607843137" d="M 956.5 910.0 L 954.5 913.0 L 956.5 910.0 Z" /><path desc="l 11 p 75" fill="rgb(78,107,39)" stroke="rgb(78,107,39)" stroke-width="1" opacity="0.5764705882352941" d="M 46.5 913.0 L 49.5 917.0 L 46.5 913.0 Z" /><path desc="l 11 p 76" fill="rgb(78,107,39)" stroke="rgb(78,107,39)" stroke-width="1" opacity="0.5764705882352941" d="M 953.5 913.0 L 950.5 917.0 L 953.5 913.0 Z" /><path desc="l 2 p 65" fill="rgb(61,85,30)" stroke="rgb(61,85,30)" stroke-width="1" opacity="0.4549019607843137" d="M 46.5 914.0 L 49.5 918.0 L 46.5 914.0 Z" /><path desc="l 2 p 66" fill="rgb(61,85,30)" stroke="rgb(61,85,30)" stroke-width="1" opacity="0.4549019607843137" d="M 953.5 914.0 L 950.5 918.0 L 953.5 914.0 Z" /><path desc="l 11 p 77" fill="rgb(78,107,39)" stroke="rgb(78,107,39)" stroke-width="1" opacity="0.5764705882352941" d="M 50.5 918.0 L 57.5 926.0 L 50.5 918.0 Z" /><path desc="l 11 p 78" fill="rgb(78,107,39)" stroke="rgb(78,107,39)" stroke-width="1" opacity="0.5764705882352941" d="M 949.5 918.0 L 942.5 926.0 L 949.5 918.0 Z" /><path desc="l 2 p 67" fill="rgb(61,85,30)" stroke="rgb(61,85,30)" stroke-width="1" opacity="0.4549019607843137" d="M 52.5 921.0 L 64.5 934.0 L 52.5 921.0 Z" /><path desc="l 2 p 68" fill="rgb(61,85,30)" stroke="rgb(61,85,30)" stroke-width="1" opacity="0.4549019607843137" d="M 947.5 921.0 L 935.5 934.0 L 947.5 921.0 Z" /><path desc="l 11 p 79" fill="rgb(78,107,39)" stroke="rgb(78,107,39)" stroke-width="1" opacity="0.5764705882352941" d="M 62.5 930.0 L 69.5 938.0 L 62.5 930.0 Z" /><path desc="l 11 p 80" fill="rgb(78,107,39)" stroke="rgb(78,107,39)" stroke-width="1" opacity="0.5764705882352941" d="M 935.5 932.0 L 930.5 938.0 L 935.5 932.0 Z" /><path desc="l 2 p 69" fill="rgb(61,85,30)" stroke="rgb(61,85,30)" stroke-width="1" opacity="0.4549019607843137" d="M 70.5 938.0 L 72.5 941.0 L 70.5 938.0 Z" /><path desc="l 11 p 81" fill="rgb(78,107,39)" stroke="rgb(78,107,39)" stroke-width="1" opacity="0.5764705882352941" d="M 71.5 938.0 L 74.5 942.0 L 71.5 938.0 Z" /><path desc="l 11 p 82" fill="rgb(78,107,39)" stroke="rgb(78,107,39)" stroke-width="1" opacity="0.5764705882352941" d="M 928.5 938.0 L 925.5 942.0 L 928.5 938.0 Z" /><path desc="l 2 p 70" fill="rgb(61,85,30)" stroke="rgb(61,85,30)" stroke-width="1" opacity="0.4549019607843137" d="M 929.5 938.0 L 927.5 941.0 L 929.5 938.0 Z" /><path desc="l 2 p 71" fill="rgb(61,85,30)" stroke="rgb(61,85,30)" stroke-width="1" opacity="0.4549019607843137" d="M 75.5 942.0 L 77.5 945.0 L 75.5 942.0 Z" /><path desc="l 11 p 83" fill="rgb(78,107,39)" stroke="rgb(78,107,39)" stroke-width="1" opacity="0.5764705882352941" d="M 76.5 942.0 L 78.5 945.0 L 76.5 942.0 Z" /><path desc="l 2 p 72" fill="rgb(61,85,30)" stroke="rgb(61,85,30)" stroke-width="1" opacity="0.4549019607843137" d="M 924.5 942.0 L 922.5 945.0 L 924.5 942.0 Z" /><path desc="l 11 p 84" fill="rgb(78,107,39)" stroke="rgb(78,107,39)" stroke-width="1" opacity="0.5764705882352941" d="M 922.5 943.0 L 921.5 945.0 L 922.5 943.0 Z" /><path desc="l 2 p 73" fill="rgb(61,85,30)" stroke="rgb(61,85,30)" stroke-width="1" opacity="0.4549019607843137" d="M 79.5 945.0 L 81.5 948.0 L 79.5 945.0 Z" /><path desc="l 11 p 85" fill="rgb(78,107,39)" stroke="rgb(78,107,39)" stroke-width="1" opacity="0.5764705882352941" d="M 80.5 945.0 L 82.5 948.0 L 80.5 945.0 Z" /><path desc="l 2 p 74" fill="rgb(61,85,30)" stroke="rgb(61,85,30)" stroke-width="1" opacity="0.4549019607843137" d="M 920.5 945.0 L 918.5 948.0 L 920.5 945.0 Z" /><path desc="l 11 p 86" fill="rgb(78,107,39)" stroke="rgb(78,107,39)" stroke-width="1" opacity="0.5764705882352941" d="M 918.5 946.0 L 917.5 948.0 L 918.5 946.0 Z" /><path desc="l 2 p 75" fill="rgb(61,85,30)" stroke="rgb(61,85,30)" stroke-width="1" opacity="0.4549019607843137" d="M 83.5 948.0 L 84.5 950.0 L 83.5 948.0 Z" /><path desc="l 11 p 87" fill="rgb(78,107,39)" stroke="rgb(78,107,39)" stroke-width="1" opacity="0.5764705882352941" d="M 84.5 948.0 L 85.5 950.0 L 84.5 948.0 Z" /><path desc="l 11 p 88" fill="rgb(78,107,39)" stroke="rgb(78,107,39)" stroke-width="1" opacity="0.5764705882352941" d="M 915.5 948.0 L 914.5 950.0 L 915.5 948.0 Z" /><path desc="l 2 p 76" fill="rgb(61,85,30)" stroke="rgb(61,85,30)" stroke-width="1" opacity="0.4549019607843137" d="M 916.5 948.0 L 915.5 950.0 L 916.5 948.0 Z" /><path desc="l 2 p 77" fill="rgb(61,85,30)" stroke="rgb(61,85,30)" stroke-width="1" opacity="0.4549019607843137" d="M 86.5 950.0 L 87.5 952.0 L 86.5 950.0 Z" /><path desc="l 11 p 89" fill="rgb(78,107,39)" stroke="rgb(78,107,39)" stroke-width="1" opacity="0.5764705882352941" d="M 87.5 950.0 L 88.5 952.0 L 87.5 950.0 Z" /><path desc="l 11 p 90" fill="rgb(78,107,39)" stroke="rgb(78,107,39)" stroke-width="1" opacity="0.5764705882352941" d="M 912.5 950.0 L 911.5 952.0 L 912.5 950.0 Z" /><path desc="l 2 p 78" fill="rgb(61,85,30)" stroke="rgb(61,85,30)" stroke-width="1" opacity="0.4549019607843137" d="M 913.5 950.0 L 912.5 952.0 L 913.5 950.0 Z" /><path desc="l 2 p 79" fill="rgb(61,85,30)" stroke="rgb(61,85,30)" stroke-width="1" opacity="0.4549019607843137" d="M 89.5 952.0 L 90.5 954.0 L 89.5 952.0 Z" /><path desc="l 11 p 91" fill="rgb(78,107,39)" stroke="rgb(78,107,39)" stroke-width="1" opacity="0.5764705882352941" d="M 90.5 952.0 L 94.0 954.5 L 92.5 954.0 L 90.5 952.0 Z" /><path desc="l 11 p 92" fill="rgb(78,107,39)" stroke="rgb(78,107,39)" stroke-width="1" opacity="0.5764705882352941" d="M 909.5 952.0 L 908.5 954.0 L 906.5 955.0 L 907.5 953.0 L 909.5 952.0 Z" /><path desc="l 2 p 80" fill="rgb(61,85,30)" stroke="rgb(61,85,30)" stroke-width="1" opacity="0.4549019607843137" d="M 910.5 952.0 L 909.5 954.0 L 910.5 952.0 Z" /><path desc="l 2 p 81" fill="rgb(61,85,30)" stroke="rgb(61,85,30)" stroke-width="1" opacity="0.4549019607843137" d="M 96.5 956.0 L 97.5 958.0 L 96.5 956.0 Z" /><path desc="l 11 p 93" fill="rgb(78,107,39)" stroke="rgb(78,107,39)" stroke-width="1" opacity="0.5764705882352941" d="M 97.5 956.0 L 103.0 959.5 L 101.5 959.0 Q 97.5 958.5 97.5 956.0 Z" /><path desc="l 11 p 94" fill="rgb(78,107,39)" stroke="rgb(78,107,39)" stroke-width="1" opacity="0.5764705882352941" d="M 902.5 956.0 L 901.5 958.0 L 897.5 960.0 L 898.5 958.0 L 902.5 956.0 Z" /><path desc="l 2 p 82" fill="rgb(61,85,30)" stroke="rgb(61,85,30)" stroke-width="1" opacity="0.4549019607843137" d="M 903.5 956.0 L 902.5 958.0 L 903.5 956.0 Z" /><path desc="l 11 p 95" fill="rgb(78,107,39)" stroke="rgb(78,107,39)" stroke-width="1" opacity="0.5764705882352941" d="M 104.5 960.0 L 107.0 961.5 L 105.5 961.0 L 104.5 960.0 Z" /><path desc="l 11 p 96" fill="rgb(78,107,39)" stroke="rgb(78,107,39)" stroke-width="1" opacity="0.5764705882352941" d="M 894.5 960.0 L 896.0 960.5 L 893.5 962.0 L 894.5 960.0 Z" /><path desc="l 11 p 97" fill="rgb(78,107,39)" stroke="rgb(78,107,39)" stroke-width="1" opacity="0.5764705882352941" d="M 108.5 962.0 L 112.0 963.5 L 110.5 964.0 L 108.5 962.0 Z" /><path desc="l 11 p 98" fill="rgb(78,107,39)" stroke="rgb(78,107,39)" stroke-width="1" opacity="0.5764705882352941" d="M 890.5 962.0 L 892.0 962.5 L 888.5 964.0 L 888.5 963.0 L 890.5 962.0 Z" /><path desc="l 2 p 83" fill="rgb(61,85,30)" stroke="rgb(61,85,30)" stroke-width="1" opacity="0.4549019607843137" d="M 882.5 966.0 L 884.0 966.5 L 880.5 968.0 L 880.5 967.0 L 882.5 966.0 Z" /><path desc="l 11 p 99" fill="rgb(78,107,39)" stroke="rgb(78,107,39)" stroke-width="1" opacity="0.5764705882352941" d="M 153.5 976.0 L 156.0 976.5 L 153.5 977.0 L 153.5 976.0 Z" /><path desc="l 14 p 12" fill="rgb(102,140,51)" stroke="rgb(102,140,51)" stroke-width="1" opacity="0.7568627450980392" d="M 156.5 976.0 L 160.0 976.5 L 156.5 977.0 L 156.5 976.0 Z" /><path desc="l 14 p 13" fill="rgb(102,140,51)" stroke="rgb(102,140,51)" stroke-width="1" opacity="0.7568627450980392" d="M 840.5 976.0 L 844.0 976.5 L 840.5 977.0 L 840.5 976.0 Z" /><path desc="l 11 p 100" fill="rgb(78,107,39)" stroke="rgb(78,107,39)" stroke-width="1" opacity="0.5764705882352941" d="M 844.5 976.0 L 847.0 976.5 L 844.5 977.0 L 844.5 976.0 Z" /><path desc="l 11 p 101" fill="rgb(78,107,39)" stroke="rgb(78,107,39)" stroke-width="1" opacity="0.5764705882352941" d="M 157.5 977.0 L 161.0 977.5 L 157.5 978.0 L 157.5 977.0 Z" /><path desc="l 14 p 14" fill="rgb(102,140,51)" stroke="rgb(102,140,51)" stroke-width="1" opacity="0.7568627450980392" d="M 161.5 977.0 L 175.0 977.5 L 161.5 978.0 L 161.5 977.0 Z" /><path desc="l 14 p 15" fill="rgb(102,140,51)" stroke="rgb(102,140,51)" stroke-width="1" opacity="0.7568627450980392" d="M 825.5 977.0 L 839.0 977.5 L 825.5 978.0 L 825.5 977.0 Z" /><path desc="l 11 p 102" fill="rgb(78,107,39)" stroke="rgb(78,107,39)" stroke-width="1" opacity="0.5764705882352941" d="M 839.5 977.0 L 842.0 977.5 L 839.5 978.0 L 839.5 977.0 Z" /><path desc="l 2 p 84" fill="rgb(61,85,30)" stroke="rgb(61,85,30)" stroke-width="1" opacity="0.4549019607843137" d="M 842.5 977.0 L 845.0 977.5 L 842.5 978.0 L 842.5 977.0 Z" /><path desc="l 2 p 85" fill="rgb(61,85,30)" stroke="rgb(61,85,30)" stroke-width="1" opacity="0.4549019607843137" d="M 164.5 978.0 L 170.0 978.5 L 164.5 979.0 L 164.5 978.0 Z" /><path desc="l 11 p 103" fill="rgb(78,107,39)" stroke="rgb(78,107,39)" stroke-width="1" opacity="0.5764705882352941" d="M 170.5 978.0 L 178.0 978.5 L 170.5 979.0 L 170.5 978.0 Z" /><path desc="l 14 p 16" fill="rgb(102,140,51)" stroke="rgb(102,140,51)" stroke-width="1" opacity="0.7568627450980392" d="M 178.5 978.0 L 822.0 978.5 L 178.5 979.0 L 178.5 978.0 Z" /><path desc="l 11 p 104" fill="rgb(78,107,39)" stroke="rgb(78,107,39)" stroke-width="1" opacity="0.5764705882352941" d="M 822.5 978.0 L 830.0 978.5 L 822.5 979.0 L 822.5 978.0 Z" /><path desc="l 2 p 86" fill="rgb(61,85,30)" stroke="rgb(61,85,30)" stroke-width="1" opacity="0.4549019607843137" d="M 830.5 978.0 L 836.0 978.5 L 830.5 979.0 L 830.5 978.0 Z" /><path desc="l 1 p 18" fill="rgb(36,49,17)" stroke="rgb(36,49,17)" stroke-width="1" opacity="0.2627450980392157" d="M 165.5 979.0 L 173.0 979.5 L 165.5 980.0 L 165.5 979.0 Z" /><path desc="l 2 p 87" fill="rgb(61,85,30)" stroke="rgb(61,85,30)" stroke-width="1" opacity="0.4549019607843137" d="M 173.5 979.0 L 827.0 979.5 L 173.5 980.0 L 173.5 979.0 Z" /><path desc="l 1 p 19" fill="rgb(36,49,17)" stroke="rgb(36,49,17)" stroke-width="1" opacity="0.2627450980392157" d="M 827.5 979.0 L 835.0 979.5 L 827.5 980.0 L 827.5 979.0 Z" /><path desc="l 1 p 20" fill="rgb(36,49,17)" stroke="rgb(36,49,17)" stroke-width="1" opacity="0.2627450980392157" d="M 175.5 980.0 L 825.0 980.5 L 175.5 981.0 L 175.5 980.0 Z" /></svg>